<svg xmlns="http://www.w3.org/2000/svg" viewBox="0 0 330.29 188.56"><defs><style>.cls-1{fill:#1e1e1e;}.cls-2{fill:#cc3a3a;}</style></defs><g id="Слой_2" data-name="Слой 2"><g id="Слой_1-2" data-name="Слой 1"><path class="cls-1" d="M148.91,179.62a18.32,18.32,0,0,1-7-1.22,9.48,9.48,0,0,1-4.55-3.77,12.08,12.08,0,0,1-1.6-6.51,14.16,14.16,0,0,1,1.09-5.74,11.48,11.48,0,0,1,3-4.11,12.94,12.94,0,0,1,4.43-2.48,17.16,17.16,0,0,1,5.37-.83,16.15,16.15,0,0,1,3.68.41,9.94,9.94,0,0,1,3.09,1.26,6.28,6.28,0,0,1,2.12,2.17,6,6,0,0,1,.77,3.14,5.09,5.09,0,0,1-3,5,12.51,12.51,0,0,1-3.2,1c-1.19.21-2.43.38-3.73.49-.65.11-1.43.2-2.32.27s-1.76.13-2.6.17-1.49.06-2,.06a1.86,1.86,0,0,0-1,.19.83.83,0,0,0-.26.7,3.75,3.75,0,0,0,.33,1.4,6.7,6.7,0,0,0,1,1.57,5.56,5.56,0,0,0,2.67,1.88,13,13,0,0,0,3.75.47,12.59,12.59,0,0,0,3.54-.47c1.06-.31,2-.62,2.89-.93a6.69,6.69,0,0,1,2.32-.47,2.68,2.68,0,0,1,1.47.35,1.48,1.48,0,0,1,.54,1.35,2.48,2.48,0,0,1-.82,1.75,7.18,7.18,0,0,1-2.29,1.47,16,16,0,0,1-3.43,1A22.76,22.76,0,0,1,148.91,179.62ZM147,166.3a17.2,17.2,0,0,0,3.62-.37,6.09,6.09,0,0,0,2.72-1.27,3.09,3.09,0,0,0,1-2.48,3.2,3.2,0,0,0-1.36-2.82,6.68,6.68,0,0,0-3.84-1,8,8,0,0,0-2.85.52,8.38,8.38,0,0,0-2.47,1.42,7.48,7.48,0,0,0-1.72,2.07,5,5,0,0,0-.65,2.46,1,1,0,0,0,.54,1,4.34,4.34,0,0,0,1.75.38C144.6,166.27,145.67,166.3,147,166.3Z"/><path class="cls-1" d="M163.24,178.5a2.52,2.52,0,0,1-1.78-.6,3.79,3.79,0,0,1-1-1.94c0-.42-.08-.89-.09-1.42s0-1.13,0-1.8.05-1.4.12-2.2a20.88,20.88,0,0,1,1.94-8.09,11.86,11.86,0,0,1,4.6-5.06,13.66,13.66,0,0,1,7-1.73,14.07,14.07,0,0,1,7,1.65,10.67,10.67,0,0,1,4.48,5.08,21.22,21.22,0,0,1,1.56,8.75q0,1,0,1.77c0,.54-.06,1-.11,1.49a8.31,8.31,0,0,1-.22,1.22,4.35,4.35,0,0,1-1.06,2.2,2.56,2.56,0,0,1-1.84.68,3.3,3.3,0,0,1-1.76-.39,2,2,0,0,1-.86-1.15,8.64,8.64,0,0,1-.35-1.89c0-1.2-.09-2.26-.13-3.18s-.1-1.74-.17-2.47-.15-1.4-.25-2-.22-1.27-.36-1.91a7.37,7.37,0,0,0-1.84-3.71,5.3,5.3,0,0,0-3.86-1.27,5.63,5.63,0,0,0-4,1.38,8.75,8.75,0,0,0-2.31,3.75,16.71,16.71,0,0,0-.6,2.11c-.16.73-.29,1.49-.4,2.27s-.19,1.61-.26,2.47-.14,1.77-.2,2.71a4.73,4.73,0,0,1-.58,2.06,2.3,2.3,0,0,1-1.15,1A4.4,4.4,0,0,1,163.24,178.5Z"/><path class="cls-1" d="M200.07,188.56a25.89,25.89,0,0,1-5.1-.43,13.36,13.36,0,0,1-3.49-1.13,6.28,6.28,0,0,1-2-1.47,2.38,2.38,0,0,1-.65-1.48,1.45,1.45,0,0,1,.41-1,2.48,2.48,0,0,1,1.06-.63,4.64,4.64,0,0,1,1.5-.22,5.32,5.32,0,0,1,1.57.29l2.06.66a19.74,19.74,0,0,0,2.64.63,15.36,15.36,0,0,0,3.27.2,7.36,7.36,0,0,0,3.28-.72,6.23,6.23,0,0,0,2.18-1.84,7.83,7.83,0,0,0,1.23-2.47,9.73,9.73,0,0,0,.38-2.67,1.54,1.54,0,0,0,0-.4.56.56,0,0,0-.12-.28.24.24,0,0,0-.2-.11,1.77,1.77,0,0,0-.85.49,15,15,0,0,1-1.58,1.12,12.2,12.2,0,0,1-2.47,1.11,11,11,0,0,1-3.49.49,14.2,14.2,0,0,1-6.35-1.27,8.62,8.62,0,0,1-3.87-3.65,11.76,11.76,0,0,1-1.3-5.72,10.83,10.83,0,0,1,1.15-5.16,10,10,0,0,1,3.15-3.58,13.84,13.84,0,0,1,4.55-2.09,20.76,20.76,0,0,1,5.33-.67,15.1,15.1,0,0,1,5.42.92,10.88,10.88,0,0,1,4.06,2.7,11.74,11.74,0,0,1,2.54,4.3,17.61,17.61,0,0,1,.88,5.74,30.85,30.85,0,0,1-1,8.27,14.76,14.76,0,0,1-2.87,5.71,11.44,11.44,0,0,1-4.73,3.32A18.39,18.39,0,0,1,200.07,188.56Zm1.08-14a9.11,9.11,0,0,0,3.11-.52,7.92,7.92,0,0,0,2.57-1.46,6.82,6.82,0,0,0,1.72-2.24,6.41,6.41,0,0,0,.63-2.85,6.93,6.93,0,0,0-.82-3.36,5.79,5.79,0,0,0-2.37-2.33,7.83,7.83,0,0,0-3.81-.85,13,13,0,0,0-2.78.32,8,8,0,0,0-2.66,1.13,6,6,0,0,0-2,2.17,7.11,7.11,0,0,0-.75,3.45,6.7,6.7,0,0,0,.87,3.45,5.85,5.85,0,0,0,2.48,2.29A8.44,8.44,0,0,0,201.15,174.59Z"/><path class="cls-1" d="M224.85,179.24a6.54,6.54,0,0,1-3.8-1,6,6,0,0,1-2.19-3.29,26.77,26.77,0,0,1-1-6.21q-.12-1-.18-2.43c0-1-.06-2-.07-3.13s0-2.23,0-3.33,0-2.12.06-3,.05-1.69.09-2.28a32.73,32.73,0,0,1,.34-3.8,4.47,4.47,0,0,1,.91-2.24,2.37,2.37,0,0,1,1.86-.74,2.28,2.28,0,0,1,2.09.92,6.23,6.23,0,0,1,.57,3.1c0,.45,0,1-.05,1.78s-.07,1.55-.12,2.44-.1,1.82-.15,2.78-.11,1.9-.15,2.82-.07,1.77-.1,2.56-.05,1.46-.05,2c0,1.9.06,3.45.18,4.64a11.73,11.73,0,0,0,.54,2.76,2.88,2.88,0,0,0,.87,1.34,2,2,0,0,0,1.19.37,3.08,3.08,0,0,0,1.52-.35q.61-.34,1.11-.69a1.82,1.82,0,0,1,1-.35,1.08,1.08,0,0,1,.9.41,1.61,1.61,0,0,1,.33,1.05,2.63,2.63,0,0,1-.48,1.48,4.74,4.74,0,0,1-1.28,1.24,7.41,7.41,0,0,1-4,1.19Z"/><path class="cls-1" d="M235.37,178.64a3.06,3.06,0,0,1-1.79-.46,2.4,2.4,0,0,1-.92-1.42,9.91,9.91,0,0,1-.26-2.46c0-.54,0-1.2,0-2s.06-1.6.11-2.51.11-1.81.17-2.73.13-1.81.2-2.67.15-1.64.24-2.33.17-1.23.25-1.65a4.43,4.43,0,0,1,1.43-2.24,3.77,3.77,0,0,1,2.38-.73,2.14,2.14,0,0,1,2,1,5.7,5.7,0,0,1,.63,3c0,.48,0,1.12-.05,1.94s-.08,1.72-.15,2.71-.13,2-.2,3-.16,2-.26,3-.21,1.79-.3,2.52a8.93,8.93,0,0,1-.34,1.64,3.64,3.64,0,0,1-1.26,1.82A3.32,3.32,0,0,1,235.37,178.64Zm1.63-24.9a4.66,4.66,0,0,1-3.09-.77,2.28,2.28,0,0,1-.84-1.72,2.68,2.68,0,0,1,.88-2.05,6,6,0,0,1,2.19-1.26,8,8,0,0,1,2.58-.43,4.63,4.63,0,0,1,1.73.31,2.77,2.77,0,0,1,1.26,1,2.85,2.85,0,0,1,.47,1.7,2.52,2.52,0,0,1-.72,1.87,4.22,4.22,0,0,1-1.9,1.05A9,9,0,0,1,237,153.74Z"/><path class="cls-1" d="M253.29,178.78c-1,0-2,0-3.09-.13s-2.07-.22-3-.39a14.17,14.17,0,0,1-2.39-.65,5.47,5.47,0,0,1-1.45-.82,1.55,1.55,0,0,1-.57-1.29,1.85,1.85,0,0,1,.55-1.43,2.4,2.4,0,0,1,1.61-.49,9.29,9.29,0,0,1,1.86.25c.74.17,1.58.35,2.53.53a15.1,15.1,0,0,0,3,.28,14.8,14.8,0,0,0,3-.28,5.75,5.75,0,0,0,2.3-.92,2.06,2.06,0,0,0,.9-1.77,2.49,2.49,0,0,0-.56-1.68,4.59,4.59,0,0,0-2-1.13,30.16,30.16,0,0,0-3.9-1,20.91,20.91,0,0,1-4.66-1.44,7.53,7.53,0,0,1-2.9-2.19,5,5,0,0,1-1-3.13,4.34,4.34,0,0,1,.9-2.74,6.69,6.69,0,0,1,2.46-1.92,14.17,14.17,0,0,1,3.56-1.13,23.9,23.9,0,0,1,7-.21,19.67,19.67,0,0,1,2.61.45,6.65,6.65,0,0,1,1.95.77,1.31,1.31,0,0,1,.74,1.11,1.71,1.71,0,0,1-1.21,1.75,3.44,3.44,0,0,1-1.18.2,13.37,13.37,0,0,1-2.36-.24,16.32,16.32,0,0,0-2.89-.24,10.74,10.74,0,0,0-2.54.28,4.77,4.77,0,0,0-1.88.88,1.89,1.89,0,0,0-.71,1.52,2.39,2.39,0,0,0,1.55,2.18,19.47,19.47,0,0,0,4.54,1.39,21.12,21.12,0,0,1,4.61,1.4,6.88,6.88,0,0,1,2.77,2.16,6.09,6.09,0,0,1,.05,6.39,6.52,6.52,0,0,1-2.42,2.09,12.86,12.86,0,0,1-3.53,1.19A21.56,21.56,0,0,1,253.29,178.78Z"/><path class="cls-1" d="M267.05,179.17a1.88,1.88,0,0,1-1.41-.52,3.31,3.31,0,0,1-.77-1.62,11.77,11.77,0,0,1-.2-1.6c-.06-.71-.11-1.54-.16-2.51s-.08-2-.11-3.24,0-2.49,0-3.86c0-1,0-2.11.08-3.2s.14-2.19.26-3.27.27-2.15.45-3.18.38-2,.61-2.9a20.25,20.25,0,0,1,.78-2.45,5.69,5.69,0,0,1,1.48-2.14A2.94,2.94,0,0,1,270,148a2.16,2.16,0,0,1,1.8.83,4,4,0,0,1,.64,2.46c0,.57,0,1.21-.07,1.91s-.11,1.42-.19,2.14-.15,1.41-.23,2.08-.13,1.27-.19,1.8a11.22,11.22,0,0,0-.08,1.25c0,.48.09.71.28.71s.45-.19.81-.58a11.88,11.88,0,0,1,1.53-1.34,10,10,0,0,1,2.6-1.35,11.74,11.74,0,0,1,4-.58,8.83,8.83,0,0,1,4.37,1,7.37,7.37,0,0,1,2.75,2.59,11.31,11.31,0,0,1,1.44,3.58,18.77,18.77,0,0,1,.43,3.93,19.83,19.83,0,0,1-.14,2.2c-.08.8-.2,1.6-.34,2.4s-.31,1.55-.49,2.25a10.28,10.28,0,0,1-.61,1.75,3,3,0,0,1-1.17,1.26,3.53,3.53,0,0,1-1.78.42,2,2,0,0,1-1.32-.38,2.3,2.3,0,0,1-.67-1,5.9,5.9,0,0,1-.05-1.4c0-.6.08-1.28.16-2s.13-1.55.18-2.37.06-1.62,0-2.39a16.1,16.1,0,0,0-.28-2.48,8.34,8.34,0,0,0-.78-2.27,4.35,4.35,0,0,0-1.51-1.67,4.53,4.53,0,0,0-2.46-.62,7.89,7.89,0,0,0-3.25.63,7.74,7.74,0,0,0-2.34,1.62,8,8,0,0,0-1.47,2,6.13,6.13,0,0,0-.61,1.87q-.12,1.58-.24,2.88c-.08.88-.16,1.67-.25,2.39s-.19,1.36-.3,1.94-.23,1.1-.36,1.58a3.57,3.57,0,0,1-1.06,1.66A2.64,2.64,0,0,1,267.05,179.17Z"/><path class="cls-1" d="M150.61,34.56a9.69,9.69,0,0,1-1.44-.09,2.21,2.21,0,0,1-.93-.34,1.47,1.47,0,0,1-.52-.71,4.4,4.4,0,0,1-.19-1.18c0-.25,0-.56,0-.9s0-.72,0-1.11,0-.79.05-1.17,0-.75.06-1.09,0-.62.06-.85a3,3,0,0,1,.52-1.55,2.28,2.28,0,0,1,1.22-.81,7.26,7.26,0,0,1,3.36-.1,4.21,4.21,0,0,1,1.22.44,2.44,2.44,0,0,1,.87.78,2.08,2.08,0,0,1,.32,1.16A1.83,1.83,0,0,1,155,28a2.12,2.12,0,0,1-.55.63,3.16,3.16,0,0,1-.62.36l-.5.17c-.13,0-.2.07-.2.11s.1.06.31.09a5.88,5.88,0,0,1,.78.18,3.75,3.75,0,0,1,1,.44,2,2,0,0,1,.67.68,1.9,1.9,0,0,1,.24,1,2,2,0,0,1-.33,1.08,3.19,3.19,0,0,1-.74.84,3.38,3.38,0,0,1-.81.44,6.9,6.9,0,0,1-1.08.33,11.86,11.86,0,0,1-1.26.2C151.48,34.54,151,34.56,150.61,34.56Zm-.1-1.11a11.5,11.5,0,0,0,1.74-.12,5.07,5.07,0,0,0,1.34-.38,2.32,2.32,0,0,0,.86-.63,1.41,1.41,0,0,0,.3-.89.94.94,0,0,0-.36-.75,2.67,2.67,0,0,0-.94-.47,7.67,7.67,0,0,0-1.28-.24,12.81,12.81,0,0,0-1.38-.1c-.46,0-.87,0-1.23,0a.44.44,0,0,0-.26.07.5.5,0,0,0-.19.25,2,2,0,0,0-.11.51c0,.22,0,.49,0,.83a8.18,8.18,0,0,0,0,1,1.28,1.28,0,0,0,.19.59.83.83,0,0,0,.47.31A3.22,3.22,0,0,0,150.51,33.45Zm-1.2-4.59,1.29,0a10.26,10.26,0,0,0,1-.08,6,6,0,0,0,.88-.16,2.47,2.47,0,0,0,1-.53A1.42,1.42,0,0,0,154,27a1.07,1.07,0,0,0-.23-.7,1.91,1.91,0,0,0-.63-.51,3.3,3.3,0,0,0-.87-.29,4.32,4.32,0,0,0-.95-.1,3.46,3.46,0,0,0-.87.1,2.39,2.39,0,0,0-.71.28,1.09,1.09,0,0,0-.43.45,2.49,2.49,0,0,0-.12.4c0,.16-.06.35-.09.54s0,.4-.05.59,0,.37,0,.53a1,1,0,0,0,.07.42A.25.25,0,0,0,149.31,28.86Z"/><path class="cls-1" d="M157.14,37.17a.61.61,0,0,1-.42-.14.45.45,0,0,1-.14-.34.62.62,0,0,1,.2-.45,2.28,2.28,0,0,1,.53-.39c.29-.2.58-.42.86-.65s.53-.46.77-.69a5.46,5.46,0,0,0,.55-.62.86.86,0,0,0,.21-.46.55.55,0,0,0-.22-.36,4.34,4.34,0,0,0-.66-.54,5,5,0,0,1-.78-.71,7.87,7.87,0,0,1-.74-.94,10,10,0,0,1-.62-1,6.2,6.2,0,0,1-.43-1,3,3,0,0,1-.16-.88.68.68,0,0,1,.09-.35.64.64,0,0,1,.24-.25.68.68,0,0,1,.35-.09.85.85,0,0,1,.56.2,1.77,1.77,0,0,1,.44.71,10.69,10.69,0,0,0,.83,1.91,12.54,12.54,0,0,0,1,1.47,3.6,3.6,0,0,0,.51.52.7.7,0,0,0,.4.22.58.58,0,0,0,.42-.22,2.49,2.49,0,0,0,.35-.47,7.9,7.9,0,0,0,.85-1.63c.21-.58.43-1.19.65-1.82a2.78,2.78,0,0,1,.39-.69.63.63,0,0,1,1-.08.85.85,0,0,1,.15.51,4.19,4.19,0,0,1-.18,1.14,8.48,8.48,0,0,1-.46,1.3,14.5,14.5,0,0,1-1.37,2.51,10.88,10.88,0,0,1-.71.94c-.33.37-.69.76-1.08,1.15s-.8.77-1.21,1.11a7.57,7.57,0,0,1-1.16.82A2.09,2.09,0,0,1,157.14,37.17Z"/><path class="cls-1" d="M172.48,34.38a1,1,0,0,1-.66-.3,4.22,4.22,0,0,1-.61-.74,9.46,9.46,0,0,1-.54-.91c-.13-.24-.28-.56-.46-1s-.36-.84-.55-1.32-.38-1-.56-1.46-.34-1-.49-1.42-.26-.83-.34-1.17a3.23,3.23,0,0,1-.13-.75.68.68,0,0,1,.24-.56.93.93,0,0,1,.61-.2,1,1,0,0,1,.57.17,1.21,1.21,0,0,1,.36.58c.11.41.24.88.4,1.41l.47,1.61c.17.55.33,1.08.49,1.57s.3.91.44,1.25a11.64,11.64,0,0,0,.46,1.07c.14.26.25.39.35.39s.25-.12.44-.37a9.53,9.53,0,0,0,.65-1c.21-.33.42-.72.65-1.17s.46-.92.7-1.42.47-1,.68-1.52.43-1,.61-1.48a2,2,0,0,1,.3-.53,1,1,0,0,1,.35-.26,1.07,1.07,0,0,1,.41-.07.88.88,0,0,1,.41.09.81.81,0,0,1,.28.27.66.66,0,0,1,.1.37,2.45,2.45,0,0,1-.18.74c-.12.34-.28.72-.48,1.16s-.43.9-.68,1.38-.51,1-.78,1.43-.52.9-.77,1.3-.47.72-.66,1-.46.59-.7.87a5,5,0,0,1-.71.69A1.07,1.07,0,0,1,172.48,34.38Z"/><path class="cls-1" d="M178,34.35a1.62,1.62,0,0,1-.7-.14,1.13,1.13,0,0,1-.43-.37.84.84,0,0,1-.15-.47.82.82,0,0,1,.23-.58,1.49,1.49,0,0,1,.57-.35,1.91,1.91,0,0,1,.65-.12,1.12,1.12,0,0,1,.53.12.86.86,0,0,1,.36.32.82.82,0,0,1,.14.5,1,1,0,0,1-.16.56,1.08,1.08,0,0,1-.43.39A1.25,1.25,0,0,1,178,34.35Z"/><path class="cls-1" d="M184.59,34.3A.63.63,0,0,1,184,34a2.85,2.85,0,0,1-.25-1.12c0-.28,0-.56,0-.85s0-.57,0-.86,0-.58,0-.86l0-.83c0-.54.07-1.07.12-1.6s.13-1,.23-1.55a10.27,10.27,0,0,1,.4-1.47,1.36,1.36,0,0,1,.4-.54,1,1,0,0,1,.57-.17.5.5,0,0,1,.42.18.64.64,0,0,1,.15.45,4.15,4.15,0,0,1,0,.49c0,.23-.07.49-.11.79l-.12.87c0,.29-.08.55-.11.78a2.42,2.42,0,0,0,0,.49.77.77,0,0,0,.06.27c0,.06.09.08.18.08a.61.61,0,0,0,.29-.08,2.15,2.15,0,0,0,.35-.22l1.26-.93c.52-.38,1.06-.78,1.6-1.21s.83-.63,1.16-.84a1.65,1.65,0,0,1,.74-.31.58.58,0,0,1,.32.07.39.39,0,0,1,.17.19.7.7,0,0,1,.05.25.57.57,0,0,1-.09.28,1.84,1.84,0,0,1-.27.35,5.82,5.82,0,0,1-.43.42c-.17.15-.36.3-.58.46s-.66.48-1,.73l-1.09.73-.86.55a1.72,1.72,0,0,0-.34.21.28.28,0,0,0-.1.17.29.29,0,0,0,.06.16,1,1,0,0,0,.21.21l.41.37.64.56.69.62.61.54.37.33a11.29,11.29,0,0,1,1.06,1.07,1.18,1.18,0,0,1,.31.54.56.56,0,0,1-.08.3.5.5,0,0,1-.23.17,1.09,1.09,0,0,1-.33,0A1.61,1.61,0,0,1,190,34a8.51,8.51,0,0,1-1.19-.94c-.49-.47-.89-.85-1.19-1.15l-.72-.73-.47-.49c-.12-.13-.26-.27-.4-.4a2.16,2.16,0,0,0-.2-.25.92.92,0,0,0-.14-.11.23.23,0,0,0-.11,0,.11.11,0,0,0-.11.06.5.5,0,0,0,0,.22v.27c0,.16,0,.35,0,.57s0,.45,0,.68,0,.43,0,.61v.38a3.61,3.61,0,0,1-.2,1.28A.6.6,0,0,1,184.59,34.3Z"/><path class="cls-1" d="M193.3,34.34a.57.57,0,0,1-.32-.09,1,1,0,0,1-.27-.24,1.55,1.55,0,0,1-.21-.36,4.52,4.52,0,0,1-.24-.71c-.07-.27-.13-.56-.19-.85s-.09-.59-.11-.87a7.54,7.54,0,0,1,0-.78,4.71,4.71,0,0,1,.46-2.2,3.07,3.07,0,0,1,1.33-1.36,4.56,4.56,0,0,1,2.15-.46,6,6,0,0,1,1,.07,4,4,0,0,1,.8.21,1.65,1.65,0,0,1,.56.32.54.54,0,0,1,.21.42.52.52,0,0,1-.08.29.45.45,0,0,1-.2.16.75.75,0,0,1-.26.05,3,3,0,0,1-.77-.13,4.26,4.26,0,0,0-1.19-.13,2.08,2.08,0,0,0-1.77.75,3.09,3.09,0,0,0-.58,2,7.94,7.94,0,0,0,0,.85c0,.27.07.53.11.77s.08.47.12.67l.1.55a1.86,1.86,0,0,1,0,.36.76.76,0,0,1-.17.56A.65.65,0,0,1,193.3,34.34Z"/><path class="cls-1" d="M201.2,34.86a5.66,5.66,0,0,1-1.2-.13,3,3,0,0,1-1-.41,1.8,1.8,0,0,1-.66-.71,2.14,2.14,0,0,1-.24-1,2,2,0,0,1,.36-1.23,2.32,2.32,0,0,1,1-.73,5.14,5.14,0,0,1,1.39-.37,12.21,12.21,0,0,1,1.61-.1,5.33,5.33,0,0,1,.56,0l.54,0,.43,0a.45.45,0,0,0,.28-.07.34.34,0,0,0,.08-.25,2.06,2.06,0,0,0-.09-.64,1.4,1.4,0,0,0-.26-.5,1.54,1.54,0,0,0-.4-.36,2.47,2.47,0,0,0-.86-.35,5.39,5.39,0,0,0-1.09-.1,4.39,4.39,0,0,0-1.16.14,6.76,6.76,0,0,0-.84.29,1.55,1.55,0,0,1-.61.15,1,1,0,0,1-.48-.1.37.37,0,0,1-.16-.34.69.69,0,0,1,.24-.49,2.2,2.2,0,0,1,.68-.42,5,5,0,0,1,1-.29,6.6,6.6,0,0,1,1.29-.11,6.36,6.36,0,0,1,2.31.36,2.74,2.74,0,0,1,1.39,1.17,4.38,4.38,0,0,1,.46,2.14,5.32,5.32,0,0,1,0,.75,5.05,5.05,0,0,1-.11.56c0,.16-.08.29-.12.41a1.13,1.13,0,0,0,0,.3.54.54,0,0,0,.12.34,2.61,2.61,0,0,0,.27.31,2,2,0,0,1,.28.31.55.55,0,0,1,.12.35.45.45,0,0,1-.19.42.75.75,0,0,1-.4.12.51.51,0,0,1-.38-.16l-.28-.32a.42.42,0,0,0-.32-.16.57.57,0,0,0-.24.06,2,2,0,0,0-.31.19,7.25,7.25,0,0,1-.61.4,3.82,3.82,0,0,1-.94.38A5.21,5.21,0,0,1,201.2,34.86Zm.19-1a3.37,3.37,0,0,0,1.09-.18,3.12,3.12,0,0,0,.94-.49,2.53,2.53,0,0,0,.65-.74,1.86,1.86,0,0,0,.24-.92.5.5,0,0,0-.2-.43,1.5,1.5,0,0,0-.66-.16l-1.25,0a6.58,6.58,0,0,0-1.38.14,2.23,2.23,0,0,0-1,.5,1.17,1.17,0,0,0-.38.93,1.22,1.22,0,0,0,.22.76,1.44,1.44,0,0,0,.67.46A3.37,3.37,0,0,0,201.39,33.88Z"/><path class="cls-1" d="M210.2,34.32a2.82,2.82,0,0,1-.74-.11,1.38,1.38,0,0,1-.66-.45,1.69,1.69,0,0,1-.35-1q0-.26-.06-.57c0-.21,0-.45,0-.69s0-.51-.05-.79l0-.83c0-.29,0-.58,0-.87a.73.73,0,0,0-.11-.47.6.6,0,0,0-.35-.14l-.4,0-.52,0-.46,0a.64.64,0,0,1-.4-.15.53.53,0,0,1-.13-.39.34.34,0,0,1,.07-.24.48.48,0,0,1,.23-.14,1.14,1.14,0,0,1,.34-.07l.73-.06.52,0a.55.55,0,0,0,.36-.14.62.62,0,0,0,.13-.38,4.1,4.1,0,0,0,0-.41c0-.15,0-.31,0-.47a3.58,3.58,0,0,1,0-.4,1.54,1.54,0,0,1,.18-.55.45.45,0,0,1,.4-.18.6.6,0,0,1,.36.09.49.49,0,0,1,.19.27,2.34,2.34,0,0,1,.09.46c0,.18,0,.34,0,.48s0,.26,0,.36,0,.21,0,.3,0,.17,0,.25a.4.4,0,0,0,.14.32.67.67,0,0,0,.36.11l.5.05.55.05.42.05a1.18,1.18,0,0,1,.5.15.36.36,0,0,1,.2.34.41.41,0,0,1-.16.35.69.69,0,0,1-.43.14h-1c-.29,0-.52,0-.67,0a.36.36,0,0,0-.28.1.8.8,0,0,0-.09.49v.72c0,.25,0,.5,0,.74l0,.72c0,.23,0,.45.05.66s0,.4.06.56a1.3,1.3,0,0,0,.27.71.6.6,0,0,0,.45.17.92.92,0,0,0,.59-.16,2.62,2.62,0,0,0,.34-.31.35.35,0,0,1,.3-.16.3.3,0,0,1,.24.09.38.38,0,0,1,.08.26.71.71,0,0,1-.17.43,1.71,1.71,0,0,1-.44.4,2.45,2.45,0,0,1-.61.29A2.37,2.37,0,0,1,210.2,34.32Z"/><path class="cls-1" d="M213,34.46a.49.49,0,0,1-.36-.12.62.62,0,0,1-.18-.34,2,2,0,0,1,0-.51c0-.24,0-.56.06-1s.1-.84.16-1.35.12-1.05.18-1.64.1-1.08.16-1.55.11-.9.17-1.28.11-.72.17-1,.1-.55.15-.75a1.78,1.78,0,0,1,.32-.74.52.52,0,0,1,.42-.22.4.4,0,0,1,.41.25,2,2,0,0,1,.11.79c0,.18,0,.39,0,.63s0,.49-.07.76-.05.54-.08.82,0,.55-.08.81,0,.51-.06.74,0,.43,0,.6,0,.3,0,.41.06.16.11.16a.35.35,0,0,0,.17-.06,1.45,1.45,0,0,0,.21-.18l.4-.36.57-.55.63-.58c.2-.19.37-.36.52-.49a2.75,2.75,0,0,1,.3-.26,1.74,1.74,0,0,1,.37-.21,1,1,0,0,1,.35-.08.49.49,0,0,1,.37.13.41.41,0,0,1,.14.31.81.81,0,0,1-.14.39,1.93,1.93,0,0,1-.39.44,9,9,0,0,1-1,1c-.34.28-.67.57-1,.88-.12.13-.18.22-.18.29a.13.13,0,0,0,0,.11,1.31,1.31,0,0,0,.16.14l.65.46.9.61.92.63c.3.2.53.37.72.51a1.69,1.69,0,0,1,.27.25.36.36,0,0,1,.1.25.39.39,0,0,1-.08.25.51.51,0,0,1-.21.2.66.66,0,0,1-.32.07.83.83,0,0,1-.42-.11,3.26,3.26,0,0,1-.4-.24c-.24-.16-.53-.35-.88-.6l-1-.76-1-.75a2.7,2.7,0,0,0-.38-.27.6.6,0,0,0-.33-.1.37.37,0,0,0-.25.1.63.63,0,0,0-.14.32c-.12.57-.22,1-.3,1.39s-.15.63-.21.83a1.07,1.07,0,0,1-.27.46A.6.6,0,0,1,213,34.46Z"/><path class="cls-1" d="M224.19,34.57a7.17,7.17,0,0,1-1.75-.21,4.41,4.41,0,0,1-1.5-.65,3.22,3.22,0,0,1-1-1.19,3.79,3.79,0,0,1-.38-1.79,5.07,5.07,0,0,1,.37-2,4,4,0,0,1,1-1.44,4.45,4.45,0,0,1,1.52-.85,5.92,5.92,0,0,1,1.85-.29,7.11,7.11,0,0,1,1.72.22,5,5,0,0,1,1.55.71,3.6,3.6,0,0,1,1.11,1.27,3.94,3.94,0,0,1,.42,1.89,4.24,4.24,0,0,1-1.26,3,4.7,4.7,0,0,1-1.53,1A5.52,5.52,0,0,1,224.19,34.57Zm0-1.36a3.84,3.84,0,0,0,1.56-.29,2.94,2.94,0,0,0,1-.75,3.24,3.24,0,0,0,.58-1,3.5,3.5,0,0,0,.18-1.09,2.67,2.67,0,0,0-.29-1.29,2.58,2.58,0,0,0-.78-.86,3.09,3.09,0,0,0-1.08-.47,4.89,4.89,0,0,0-1.21-.15,3.37,3.37,0,0,0-1.53.35,2.81,2.81,0,0,0-1.17,1.05,3.24,3.24,0,0,0-.45,1.78,3,3,0,0,0,.35,1.49,2.25,2.25,0,0,0,1.06.93A4.18,4.18,0,0,0,224.15,33.21Z"/><path class="cls-1" d="M233.86,34.75a1.28,1.28,0,0,1-.79-.38,7.61,7.61,0,0,1-.9-1,7,7,0,0,1-.49-.73c-.2-.31-.4-.66-.62-1l-.64-1.16-.57-1.11-.42-.88c-.08-.18-.14-.34-.19-.48a1.34,1.34,0,0,1-.07-.36.6.6,0,0,1,.1-.34.71.71,0,0,1,.27-.21.83.83,0,0,1,.85.11,2.09,2.09,0,0,1,.43.56l.27.56.45.93.54,1.11.56,1.12c.18.36.34.68.49.94a4.67,4.67,0,0,0,.41.65c.13.17.23.25.3.25s.18-.08.31-.24a4.92,4.92,0,0,0,.38-.64q.51-1,1.05-2.25l1.09-2.6a2.25,2.25,0,0,1,.4-.58.72.72,0,0,1,.48-.17A.64.64,0,0,1,238,27a.55.55,0,0,1,.16.44,1.73,1.73,0,0,1,0,.37c0,.14-.08.28-.14.44s-.19.55-.34.9-.31.75-.49,1.16-.37.82-.57,1.22-.39.78-.57,1.12a8.58,8.58,0,0,1-.52.84,5.08,5.08,0,0,1-.84.92A1.21,1.21,0,0,1,233.86,34.75Z"/><path class="cls-1" d="M241.71,34.42c-.3,0-.63,0-1,0s-.69-.07-1-.13a3.88,3.88,0,0,1-.8-.23,1.36,1.36,0,0,1-.4-.22.44.44,0,0,1-.16-.34.43.43,0,0,1,.15-.36.67.67,0,0,1,.43-.12,2.88,2.88,0,0,1,.61.09l.86.18a5.72,5.72,0,0,0,1,.09,5.52,5.52,0,0,0,1.09-.1,2.17,2.17,0,0,0,.87-.35.82.82,0,0,0,.35-.69.92.92,0,0,0-.21-.63,1.63,1.63,0,0,0-.71-.43,8.16,8.16,0,0,0-1.4-.36,7,7,0,0,1-1.56-.49,2.53,2.53,0,0,1-1-.72,1.64,1.64,0,0,1-.33-1,1.4,1.4,0,0,1,.29-.87,2.42,2.42,0,0,1,.77-.62,4.54,4.54,0,0,1,1.13-.37,7.17,7.17,0,0,1,1.34-.13c.27,0,.55,0,.85.05s.56.08.81.14a2.38,2.38,0,0,1,.61.22c.15.09.23.19.23.31a.4.4,0,0,1-.31.43,1,1,0,0,1-.31.05,4.79,4.79,0,0,1-.77-.08,6.41,6.41,0,0,0-1-.07,3.82,3.82,0,0,0-1,.11,1.76,1.76,0,0,0-.73.33.73.73,0,0,0-.28.6.92.92,0,0,0,.57.84,6.37,6.37,0,0,0,1.63.52,8.06,8.06,0,0,1,1.6.49,2.28,2.28,0,0,1,.92.71,1.74,1.74,0,0,1,.3,1,1.78,1.78,0,0,1-.29,1,2.16,2.16,0,0,1-.79.67,4.17,4.17,0,0,1-1.13.37A6.91,6.91,0,0,1,241.71,34.42Z"/><path class="cls-1" d="M245.94,34.46a.52.52,0,0,1-.36-.12.79.79,0,0,1-.18-.34,2.51,2.51,0,0,1-.05-.51c0-.24,0-.56.06-1s.1-.84.16-1.35.13-1.05.18-1.64.11-1.08.17-1.55.11-.9.16-1.28.12-.72.17-1l.15-.75a1.92,1.92,0,0,1,.32-.74.54.54,0,0,1,.43-.22.42.42,0,0,1,.41.25,2.14,2.14,0,0,1,.11.79q0,.27,0,.63c0,.24,0,.49-.06.76s-.05.54-.08.82-.05.55-.08.81,0,.51-.06.74,0,.43,0,.6a2.29,2.29,0,0,0,0,.41c0,.1,0,.16.11.16a.29.29,0,0,0,.16-.06,1.45,1.45,0,0,0,.21-.18l.4-.36.58-.55.62-.58.53-.49a2.75,2.75,0,0,1,.3-.26,1.53,1.53,0,0,1,.37-.21,1,1,0,0,1,.35-.08.51.51,0,0,1,.37.13.4.4,0,0,1,.13.31.78.78,0,0,1-.13.39,1.77,1.77,0,0,1-.4.44,9,9,0,0,1-1,1,11.94,11.94,0,0,0-1,.88c-.13.13-.19.22-.19.29a.16.16,0,0,0,.05.11l.17.14c.15.12.37.27.65.46l.9.61.92.63c.29.2.53.37.71.51a1.81,1.81,0,0,1,.28.25.42.42,0,0,1,.1.25.46.46,0,0,1-.08.25.6.6,0,0,1-.22.2.66.66,0,0,1-.32.07.82.82,0,0,1-.41-.11,3.38,3.38,0,0,1-.41-.24c-.24-.16-.53-.35-.87-.6l-1.05-.76-1-.75a2.65,2.65,0,0,0-.37-.27.65.65,0,0,0-.33-.1.36.36,0,0,0-.25.1.56.56,0,0,0-.14.32c-.12.57-.22,1-.3,1.39s-.16.63-.22.83a.9.9,0,0,1-.27.46A.6.6,0,0,1,245.94,34.46Z"/><path class="cls-1" d="M255.8,34.86a5.66,5.66,0,0,1-1.2-.13,3,3,0,0,1-1-.41,1.8,1.8,0,0,1-.66-.71,2.14,2.14,0,0,1-.24-1,2,2,0,0,1,.36-1.23,2.32,2.32,0,0,1,1-.73,5.12,5.12,0,0,1,1.4-.37,12,12,0,0,1,1.6-.1,5.24,5.24,0,0,1,.56,0l.54,0,.43,0a.45.45,0,0,0,.28-.07.34.34,0,0,0,.08-.25,2.06,2.06,0,0,0-.09-.64,1.4,1.4,0,0,0-.26-.5,1.54,1.54,0,0,0-.4-.36,2.47,2.47,0,0,0-.86-.35,5.39,5.39,0,0,0-1.09-.1,4.44,4.44,0,0,0-1.16.14,7.38,7.38,0,0,0-.84.29,1.55,1.55,0,0,1-.61.15,1,1,0,0,1-.48-.1.37.37,0,0,1-.16-.34.69.69,0,0,1,.24-.49,2.14,2.14,0,0,1,.69-.42,4.89,4.89,0,0,1,1-.29,6.6,6.6,0,0,1,1.29-.11,6.36,6.36,0,0,1,2.31.36A2.74,2.74,0,0,1,260,28.29a4.27,4.27,0,0,1,.46,2.14,5.32,5.32,0,0,1-.05.75,5.05,5.05,0,0,1-.11.56c0,.16-.08.29-.11.41a.86.86,0,0,0,0,.3.54.54,0,0,0,.12.34,2,2,0,0,0,.28.31,2.61,2.61,0,0,1,.27.31.55.55,0,0,1,.12.35.45.45,0,0,1-.19.42.75.75,0,0,1-.4.12.51.51,0,0,1-.38-.16l-.28-.32a.4.4,0,0,0-.32-.16.6.6,0,0,0-.24.06,2.62,2.62,0,0,0-.31.19c-.16.12-.36.25-.6.4a3.9,3.9,0,0,1-.95.38A5.15,5.15,0,0,1,255.8,34.86Zm.19-1a3.32,3.32,0,0,0,1.09-.18,3.12,3.12,0,0,0,.94-.49,2.53,2.53,0,0,0,.65-.74,1.86,1.86,0,0,0,.24-.92.5.5,0,0,0-.2-.43,1.5,1.5,0,0,0-.66-.16l-1.25,0a6.72,6.72,0,0,0-1.38.14,2.23,2.23,0,0,0-1,.5,1.35,1.35,0,0,0-.15,1.69,1.34,1.34,0,0,0,.67.46A3.26,3.26,0,0,0,256,33.88Z"/><path class="cls-1" d="M262,37.17a.6.6,0,0,1-.41-.14.46.46,0,0,1-.15-.34.63.63,0,0,1,.21-.45,2.08,2.08,0,0,1,.53-.39c.29-.2.57-.42.85-.65a8.9,8.9,0,0,0,.77-.69,5.67,5.67,0,0,0,.56-.62.86.86,0,0,0,.21-.46.55.55,0,0,0-.22-.36,5.65,5.65,0,0,0-.66-.54,5,5,0,0,1-.78-.71,7.87,7.87,0,0,1-.74-.94,10,10,0,0,1-.62-1,6.2,6.2,0,0,1-.43-1,2.74,2.74,0,0,1-.16-.88.68.68,0,0,1,.09-.35.64.64,0,0,1,.24-.25.67.67,0,0,1,.34-.09.83.83,0,0,1,.56.2,1.88,1.88,0,0,1,.45.71,10,10,0,0,0,.83,1.91,12.54,12.54,0,0,0,1,1.47,3.6,3.6,0,0,0,.51.52.71.71,0,0,0,.39.22.58.58,0,0,0,.43-.22,3,3,0,0,0,.35-.47,8.38,8.38,0,0,0,.84-1.63c.22-.58.44-1.19.66-1.82a2.5,2.5,0,0,1,.39-.69.59.59,0,0,1,.48-.28.61.61,0,0,1,.51.2.85.85,0,0,1,.14.51,4.15,4.15,0,0,1-.17,1.14,9.69,9.69,0,0,1-.46,1.3c-.19.45-.41.89-.64,1.32s-.48.82-.73,1.19a10.88,10.88,0,0,1-.71.94c-.33.37-.69.76-1.09,1.15a15.46,15.46,0,0,1-1.2,1.11,8.09,8.09,0,0,1-1.16.82A2.13,2.13,0,0,1,262,37.17Z"/><path class="cls-1" d="M272.43,34.86a5.66,5.66,0,0,1-1.2-.13,3.13,3.13,0,0,1-1-.41,2,2,0,0,1-.66-.71,2.14,2.14,0,0,1-.23-1,2,2,0,0,1,.36-1.23,2.28,2.28,0,0,1,1-.73,5.32,5.32,0,0,1,1.4-.37,12.1,12.1,0,0,1,1.61-.1,5.33,5.33,0,0,1,.56,0l.54,0,.42,0a.49.49,0,0,0,.29-.07.34.34,0,0,0,.08-.25,2.06,2.06,0,0,0-.09-.64,1.58,1.58,0,0,0-.26-.5,1.72,1.72,0,0,0-.4-.36A2.44,2.44,0,0,0,274,28a5.22,5.22,0,0,0-1.08-.1,4.33,4.33,0,0,0-1.16.14,6.23,6.23,0,0,0-.84.29,1.59,1.59,0,0,1-.61.15,1,1,0,0,1-.48-.1.37.37,0,0,1-.17-.34.71.71,0,0,1,.25-.49,2.09,2.09,0,0,1,.68-.42,5,5,0,0,1,1-.29,6.53,6.53,0,0,1,1.29-.11,6.36,6.36,0,0,1,2.31.36,2.67,2.67,0,0,1,1.38,1.17,4.27,4.27,0,0,1,.47,2.14,5.32,5.32,0,0,1-.05.75,3.39,3.39,0,0,1-.12.56c0,.16-.08.29-.11.41a1.17,1.17,0,0,0,0,.3.54.54,0,0,0,.12.34,2.7,2.7,0,0,0,.28.31,2,2,0,0,1,.28.31.55.55,0,0,1,.12.35.47.47,0,0,1-.19.42.78.78,0,0,1-.41.12.53.53,0,0,1-.38-.16l-.27-.32a.43.43,0,0,0-.32-.16.53.53,0,0,0-.24.06,2.6,2.6,0,0,0-.32.19,5.63,5.63,0,0,1-.6.4,3.82,3.82,0,0,1-.94.38A5.21,5.21,0,0,1,272.43,34.86Zm.19-1a3.31,3.31,0,0,0,1.08-.18,2.9,2.9,0,0,0,.94-.49,2.43,2.43,0,0,0,.66-.74,1.86,1.86,0,0,0,.24-.92.5.5,0,0,0-.2-.43,1.58,1.58,0,0,0-.66-.16l-1.25,0a6.58,6.58,0,0,0-1.38.14,2.33,2.33,0,0,0-1,.5,1.21,1.21,0,0,0-.38.93,1.23,1.23,0,0,0,.23.76,1.39,1.39,0,0,0,.67.46A3.37,3.37,0,0,0,272.62,33.88Z"/><path class="cls-2" d="M199.36,87.38c.17,2.56.36,5.12.51,7.68a147.16,147.16,0,0,1-1.7,33.22c-.83,4.77-2.24,9.42-6,12.81-6.86,6.14-14.6,6.38-22.79,3.2a13.91,13.91,0,0,1-2.78-1.46c-4.83-3.25-10-3.68-15.59-2.44-6.67,1.5-13.39,2.73-20.28,1.91-6-.71-11.59-2.55-16.35-6.47a22.38,22.38,0,0,1-2.18-33.06c6.94-7.49,16-11,25.44-13.94,5.17-1.59,10.31-3.31,15.35-5.28,2.39-.94,5.13-2.34,4.54-5.62s-3.61-3.71-6.33-4c-5.56-.69-10.19,1.83-14.75,4.51-2.93,1.73-5.8,3.59-8.82,5.14a12.94,12.94,0,0,1-9.19,1.1,6.42,6.42,0,0,1-5.19-6.89c.11-5,3.14-8.49,6.39-11.66,16-15.67,41.24-19.47,61-9.05,4.27,2.26,8,5.54,12.38,8.62-.12-1.52.11-3.11-.4-4.41-2.09-5.39.85-12.18,8.76-13.74,9.41-1.86,20.27,3.07,21.23,15.11.23,2.88.5,5.75.84,8.61a35.77,35.77,0,0,0,.94,5.16c.66,2.43,1.15,5.15,4.3,5.63,2.16.32,4.09-1.66,5.27-5.37.79-2.5,1.33-5.08,2-7.6,2.09-7.49,6.46-11.37,13.24-11.83,7.87-.53,14.41,3.07,17.17,9.9,1.44,3.55,2.15,7.38,3.28,11a48.08,48.08,0,0,0,2.46,6.88c1,2.1,2.65,3.89,5.25,3.75a5.31,5.31,0,0,0,4.92-4.14c1.26-5.15,2.13-10.4,3.08-15.62.47-2.57.55-5.24,1.23-7.75a12.26,12.26,0,0,1,9.21-9.15,5.49,5.49,0,0,0,3.95-3.31c4.38-9.32,19.5-11.9,26.91-4.72,4.69,4.54,5,12.66-.17,17.15-4.1,3.52-4.81,7.11-4.64,12.23.23,6.47-.81,13.07-2,19.49-1.54,8.51-3.65,16.92-5.67,25.33a58.58,58.58,0,0,1-2.82,8.45,19.49,19.49,0,0,1-15.87,12.6,41,41,0,0,1-25.72-4.21c-6.6-3.44-10.2-9.33-12.68-16.1a37.76,37.76,0,0,0-3-6.69c-2.2-3.65-5.63-4.18-8.46-1-2.07,2.35-4.13,5.27-4.75,8.24-2.39,11.44-14.53,13.47-22.39,8.77-6.95-4.16-10.17-10.89-12.37-18.22-2-6.53-3.57-13.16-5.36-19.74-.29-1.06-.7-2.09-1.06-3.13Zm-39.47,15.51c0-2.9-.82-4-3.5-3.56-7.4,1.14-13.89,4.18-18.54,10.26-2.38,3.11-2.53,6.63-.6,9,2.23,2.76,5.31,3.15,8.57,2.41C153.66,119.24,159.87,111.2,159.89,102.89Z"/><path class="cls-2" d="M85.48,80.43c10.83,5.94,14.59,15.31,15.13,26.57.33,6.71.21,13.57,1.67,20,2.09,9.21,8.32,15.37,17.46,18.3a14.63,14.63,0,0,1,1.73.58c3.83,1.75,4.54,5.31,1.44,8.16-4.39,4-9.78,6.11-15.55,7.07C90.15,164,76,154.35,71.29,135.3c-1.85-7.5-2.14-15.38-3.22-23.08-.6-4.23-1.25-8.47-2.13-12.65-.51-2.41-1.47-5.11-4.38-5.25s-3.84,2.69-4.67,5c-2.59,7.14-3.61,14.54-1.48,21.91,3.31,11.44-2.26,19.09-12.36,22.38-10.34,3.37-20.18,1.93-28.66-5.08-7.85-6.5-9.65-15.52-9-25.16.72-11.46,4.75-22.18,7.73-33.14q3-10.86,5.23-21.9c1-4.56-.34-8.4-4.17-11.64-6.87-5.83-5.65-14,2.38-18,1.64-.83,3.3-1.61,4.93-2.44A11.44,11.44,0,0,0,28,17C29.62,4.73,42.18-.34,53.36,6.08a8.17,8.17,0,0,1,2.35,1.66c2.37,2.94,4.75,2.2,7.72.76C74.82,3,86.77-.48,99.58.05c10.16.42,19.79,2.54,27.55,9.77,6,5.55,8,12.56,7.22,20.47-1.09,10.6-6.57,19.05-13.63,26.6-9.3,10-20.89,16.59-33,22.48C87.14,79.67,86.53,79.94,85.48,80.43Zm-25-12.36A73.48,73.48,0,0,0,80.67,54.23a42.91,42.91,0,0,0,7.71-9.83c3.56-6.61.36-12.36-7-13.32a26.27,26.27,0,0,0-14.08,2.24,3.17,3.17,0,0,0-1.3,2.2c-1.07,7-2,14-3.06,21C62.29,60.25,61.38,64,60.52,68.07Z"/><path class="cls-2" d="M7.73,24.4a23.69,23.69,0,0,1-3.67-.84c-3.9-1.43-5.18-5.4-3-9C3.89,10,11.39,7.33,16.53,9.09c4.18,1.44,5.51,5.43,2.91,9.28S13.08,24.2,7.73,24.4Z"/><path class="cls-2" d="M288.22,46.36c-2.81-.26-5.32-.69-6.24-3.43s.64-4.72,2.66-6.29c3-2.32,6.35-3.66,10.22-2.6s5.08,4.19,2.72,7.42A12,12,0,0,1,288.22,46.36Z"/></g></g></svg>