<svg preserveAspectRatio="none" overflow="visible" style="display: block;" width="54" height="54" viewBox="0 0 54 54" fill="none" xmlns="http://www.w3.org/2000/svg">
<g id="Group 328">
<circle id="Ellipse 64" cx="27" cy="27" r="27" fill="#DFED8C"/>
<path id="Vector" d="M40.392 15.6238C40.392 13.8186 39.5524 13 37.7472 13C30.3797 13 22.9913 13 15.6028 13C13.8396 13 13 13.8606 13 15.6657C13 21.48 13 27.2732 13 33.0875C13 34.6407 13.5877 35.2284 15.162 35.2494C17.3659 35.2704 19.5699 35.2494 21.7738 35.2494C22.1307 35.2494 22.4875 35.2914 22.9913 35.3124C22.4875 36.5928 22.0467 37.7262 21.6059 38.8597C21.1441 40.0561 21.333 40.35 22.6554 40.35C25.3421 40.35 28.0498 40.35 30.7366 40.35C32.1009 40.35 32.2898 40.0561 31.7651 38.7548C31.3243 37.6213 30.8625 36.5088 30.3587 35.2284H31.6811C33.8851 35.2284 36.089 35.2494 38.293 35.2284C39.8043 35.2074 40.413 34.6407 40.413 33.1294C40.413 27.3152 40.413 21.459 40.392 15.6238ZM26.7065 33.7172C26.0768 33.7172 25.552 33.1924 25.552 32.5627C25.552 31.933 26.0768 31.4082 26.7065 31.4082C27.3362 31.4082 27.8609 31.933 27.8609 32.5627C27.8609 33.1924 27.3362 33.7172 26.7065 33.7172ZM37.0546 29.4772H16.3794V16.3584H37.0756V29.4772H37.0546Z" fill="#1E1E1E"/>
</g>
</svg>
