<svg preserveAspectRatio="none" overflow="visible" style="display: block;" width="54" height="54" viewBox="0 0 54 54" fill="none" xmlns="http://www.w3.org/2000/svg">
<g id="Group 324">
<circle id="Ellipse 56" cx="27" cy="27" r="27" fill="#CC3A3A"/>
<g id="Group 170">
<path id="Vector" d="M41.5143 40.35H13.1735C11.4255 40.35 10 38.9215 10 37.1529V20.2318C10 18.4802 11.4086 17.0517 13.1565 17.0517C15.159 17.0347 17.6537 17.0347 19.1471 17.0007C19.5374 17.0007 20.0126 16.7626 20.2672 16.4565C21.0987 15.5211 21.8115 14.5008 22.6261 13.5655C22.8637 13.2934 23.3049 13.0383 23.6613 13.0383C26.122 12.9872 28.5828 12.9872 31.0435 13.0383C31.3999 13.0383 31.8411 13.2934 32.0787 13.5655C32.8933 14.5008 33.606 15.5211 34.4376 16.4565C34.6922 16.7456 35.1843 16.9837 35.5577 16.9837C37.5432 17.0177 39.5118 17.0177 41.5143 17.0177C43.2623 17.0177 44.6878 18.4462 44.6878 20.1978V37.1359C44.6878 38.9215 43.2623 40.35 41.5143 40.35ZM34.5734 28.3267C34.5903 24.3133 31.3659 21.0651 27.3778 21.0481C23.3898 21.0311 20.1314 24.2793 20.1314 28.2757C20.1144 32.2721 23.3558 35.5373 27.3269 35.5543C31.298 35.5713 34.5564 32.3231 34.5734 28.3267ZM40.9882 19.2795C40.0209 19.1945 39.1384 19.9597 39.0875 20.9291C39.0196 21.9664 39.8682 22.8168 40.8864 22.7827C41.8537 22.7487 42.5665 22.0175 42.5665 21.0311C42.5835 20.0958 41.9046 19.3645 40.9882 19.2795Z" fill="white"/>
<path id="Vector_2" d="M32.6805 28.3427C32.6805 31.2963 30.3105 33.6793 27.3523 33.6793C24.3941 33.6793 22.0241 31.3131 22.0073 28.3595C22.0073 25.4227 24.4109 23.0062 27.3355 23.0062C30.2769 22.9894 32.6805 25.406 32.6805 28.3427Z" fill="white"/>
</g>
</g>
</svg>
