<svg width="244" height="64" viewBox="0 0 244 64" fill="none" xmlns="http://www.w3.org/2000/svg">
<path d="M143.198 12.0244C143.198 15.8904 140.064 19.0244 136.198 19.0244C132.332 19.0244 129.198 15.8904 129.198 12.0244C129.198 8.15842 132.332 5.02441 136.198 5.02441C140.064 5.02441 143.198 8.15842 143.198 12.0244Z" fill="#1E1E1E"/>
<path d="M118.198 38.0244C118.198 41.8904 115.064 45.0244 111.198 45.0244C107.332 45.0244 104.198 41.8904 104.198 38.0244C104.198 34.1584 107.332 31.0244 111.198 31.0244C115.064 31.0244 118.198 34.1584 118.198 38.0244Z" fill="#1E1E1E"/>
<path d="M190.262 51.7285C189.259 51.7285 188.449 51.4832 187.83 50.9925C187.233 50.4805 186.795 49.7552 186.518 48.8165C186.241 47.8778 186.102 46.7685 186.102 45.4885C186.102 44.5712 186.123 43.5898 186.166 42.5445C186.23 41.4778 186.326 40.3898 186.454 39.2805C186.582 38.1498 186.742 37.0298 186.934 35.9205C187.126 34.7898 187.361 33.7125 187.638 32.6885C187.915 31.6432 188.235 30.6725 188.598 29.7765C189.75 27.2378 191.158 25.3072 192.822 23.9845C194.507 22.6618 196.523 22.0005 198.87 22.0005C200.47 22.0005 201.793 22.3952 202.838 23.1845C203.905 23.9738 204.779 25.0085 205.462 26.2885C206.166 27.5472 206.742 28.8805 207.19 30.2885C207.553 31.3338 207.947 32.2512 208.374 33.0405C208.822 33.8298 209.334 34.2245 209.91 34.2245C210.571 34.2245 211.211 33.8618 211.83 33.1365C212.47 32.4112 213.131 31.4405 213.814 30.2245C214.71 28.6032 215.627 27.1952 216.566 26.0005C217.526 24.8058 218.614 23.8778 219.83 23.2165C221.046 22.5338 222.497 22.1925 224.182 22.1925C226.507 22.1925 228.363 22.8432 229.75 24.1445C231.158 25.4245 232.171 27.1632 232.79 29.3605C233.43 31.5578 233.75 34.0325 233.75 36.7845C233.75 37.7445 233.718 38.7365 233.654 39.7605C233.611 40.7632 233.547 41.7658 233.462 42.7685C233.377 43.7498 233.259 44.6992 233.11 45.6165C232.961 46.5338 232.779 47.3872 232.566 48.1765C232.182 49.4138 231.659 50.3098 230.998 50.8645C230.337 51.4192 229.473 51.6965 228.406 51.6965C227.425 51.6965 226.614 51.4512 225.974 50.9605C225.355 50.4485 224.897 49.7765 224.598 48.9445C224.534 48.5178 224.481 48.0378 224.438 47.5045C224.417 46.9712 224.406 46.3845 224.406 45.7445C224.406 45.1045 224.406 44.4112 224.406 43.6645C224.427 42.9178 224.438 42.1178 224.438 41.2645C224.438 40.3898 224.427 39.4725 224.406 38.5125C224.342 37.3392 224.203 36.2618 223.99 35.2805C223.777 34.2778 223.467 33.4885 223.062 32.9125C222.657 32.3152 222.113 32.0165 221.43 32.0165C220.769 32.0165 220.129 32.3258 219.51 32.9445C218.913 33.5632 218.337 34.3738 217.782 35.3765C217.227 36.3792 216.673 37.4565 216.118 38.6085C215.179 40.6352 214.23 42.1498 213.27 43.1525C212.31 44.1552 211.041 44.6565 209.462 44.6565C207.883 44.6565 206.678 44.1658 205.846 43.1845C205.014 42.1818 204.374 40.8485 203.926 39.1845C203.563 37.8832 203.211 36.7418 202.87 35.7605C202.529 34.7578 202.134 33.9792 201.686 33.4245C201.238 32.8485 200.673 32.5605 199.99 32.5605C199.371 32.5605 198.785 32.8592 198.23 33.4565C197.697 34.0325 197.195 34.9178 196.726 36.1125C196.278 37.4138 195.905 38.7472 195.606 40.1125C195.329 41.4778 195.115 42.8005 194.966 44.0805C194.838 45.3392 194.742 46.5125 194.678 47.6005C194.401 49.0938 193.942 50.1605 193.302 50.8005C192.662 51.4192 191.649 51.7285 190.262 51.7285Z" fill="#CC3A3A"/>
<path d="M165.33 53.2004C162.152 53.2004 159.4 52.7418 157.074 51.8244C154.77 50.9071 152.861 49.5738 151.346 47.8244C149.853 46.0751 148.744 43.9418 148.018 41.4244C147.293 38.9071 146.93 36.0378 146.93 32.8164C146.93 32.0058 146.962 31.2058 147.026 30.4164C147.09 29.6271 147.186 28.8698 147.314 28.1444C147.464 27.3978 147.634 26.7258 147.826 26.1284C148.317 24.6138 149.01 23.4938 149.906 22.7684C150.802 22.0431 151.88 21.6804 153.138 21.6804C154.354 21.6804 155.261 21.9044 155.858 22.3524C156.456 22.8004 156.85 23.3658 157.042 24.0484C157.256 24.7098 157.373 25.3711 157.394 26.0324C157.416 26.4804 157.426 26.9818 157.426 27.5364C157.448 28.0698 157.458 28.6244 157.458 29.2004C157.48 29.7764 157.49 30.3311 157.49 30.8644C157.512 31.3978 157.544 31.8884 157.586 32.3364C157.714 34.8111 158.034 36.9658 158.546 38.8004C159.08 40.6138 159.912 42.0324 161.042 43.0564C162.194 44.0591 163.73 44.5604 165.65 44.5604C167.549 44.5604 169.096 44.1658 170.29 43.3764C171.506 42.5658 172.456 41.3924 173.138 39.8564C173.821 38.2991 174.333 36.4004 174.674 34.1604C174.802 33.5418 174.898 32.9124 174.962 32.2724C175.048 31.6111 175.112 30.9498 175.154 30.2884C175.218 29.6271 175.282 28.9658 175.346 28.3044C175.432 27.6431 175.528 26.9818 175.634 26.3204C175.933 24.9124 176.445 23.8138 177.17 23.0244C177.917 22.2138 179.005 21.8084 180.434 21.8084C181.65 21.8084 182.578 22.1818 183.218 22.9284C183.858 23.6751 184.306 24.7098 184.562 26.0324C184.626 26.7578 184.68 27.4938 184.722 28.2404C184.765 28.9871 184.786 29.7444 184.786 30.5124C184.786 31.2591 184.776 32.0164 184.754 32.7844C184.733 33.5311 184.701 34.2778 184.658 35.0244C184.445 39.0564 183.57 42.4271 182.034 45.1364C180.498 47.8244 178.333 49.8404 175.538 51.1844C172.744 52.5284 169.341 53.2004 165.33 53.2004Z" fill="#CC3A3A"/>
<path d="M135.627 52.0163C134.347 52.0163 133.345 51.771 132.619 51.2803C131.894 50.7897 131.382 50.0537 131.083 49.0723C130.806 48.0697 130.667 46.8217 130.667 45.3283C130.667 44.6243 130.689 43.803 130.731 42.8643C130.774 41.9043 130.817 40.891 130.859 39.8243C130.923 38.7577 130.998 37.6803 131.083 36.5923C131.169 35.483 131.265 34.4163 131.371 33.3923C131.478 32.3683 131.585 31.4403 131.691 30.6083C131.819 29.7763 131.947 29.1043 132.075 28.5923C132.609 27.0563 133.398 25.915 134.443 25.1683C135.489 24.4003 136.822 24.0163 138.443 24.0163C139.979 24.0163 141.099 24.5817 141.803 25.7123C142.507 26.8217 142.859 28.379 142.859 30.3843C142.859 31.067 142.838 31.931 142.795 32.9763C142.753 34.0003 142.689 35.1203 142.603 36.3363C142.518 37.531 142.411 38.7577 142.283 40.0163C142.177 41.2537 142.049 42.4483 141.899 43.6003C141.75 44.731 141.59 45.7443 141.419 46.6403C141.249 47.515 141.067 48.1977 140.875 48.6883C140.342 49.883 139.638 50.7363 138.763 51.2483C137.91 51.7603 136.865 52.0163 135.627 52.0163ZM137.995 19.5683C135.777 19.5683 134.23 19.2057 133.355 18.4803C132.481 17.7337 132.043 16.8803 132.043 15.9203C132.043 14.7043 132.481 13.6803 133.355 12.8483C134.23 12.0163 135.318 11.387 136.619 10.9603C137.921 10.5123 139.211 10.2883 140.491 10.2883C141.451 10.2883 142.326 10.4483 143.115 10.7683C143.926 11.067 144.566 11.547 145.035 12.2083C145.526 12.8483 145.771 13.691 145.771 14.7363C145.771 15.8883 145.409 16.827 144.683 17.5523C143.979 18.2563 143.03 18.7683 141.835 19.0883C140.662 19.4083 139.382 19.5683 137.995 19.5683Z" fill="#CC3A3A"/>
<path d="M109.158 52.7845C106.001 52.7845 103.249 52.2618 100.902 51.2165C98.5553 50.1925 96.742 48.6458 95.462 46.5765C94.182 44.4858 93.542 41.8832 93.542 38.7685C93.542 35.8245 94.0967 33.3498 95.206 31.3445C96.3153 29.3178 97.9153 27.7925 100.006 26.7685C102.118 25.7232 104.657 25.2005 107.622 25.2005C109.179 25.2005 110.47 25.3712 111.494 25.7125C112.518 26.0538 113.35 26.4058 113.99 26.7685C114.438 27.0245 114.833 27.2485 115.174 27.4405C115.537 27.6112 115.803 27.6965 115.974 27.6965C116.294 27.6965 116.454 27.3978 116.454 26.8005C116.454 26.3312 116.411 25.7018 116.326 24.9125C116.241 24.1018 116.123 23.2165 115.974 22.2565C115.846 21.2965 115.707 20.3365 115.558 19.3765C115.43 18.3952 115.313 17.4885 115.206 16.6565C115.121 15.8245 115.078 15.1525 115.078 14.6405C115.078 11.5472 116.625 10.0005 119.718 10.0005C120.806 10.0005 121.809 10.2352 122.726 10.7045C123.665 11.1525 124.433 11.8565 125.03 12.8165C125.35 13.5205 125.659 14.4698 125.958 15.6645C126.278 16.8378 126.566 18.1392 126.822 19.5685C127.078 20.9765 127.302 22.4272 127.494 23.9205C127.707 25.3925 127.857 26.8005 127.942 28.1445C128.049 29.4672 128.102 30.6085 128.102 31.5685C128.102 36.3898 127.483 40.3685 126.246 43.5045C125.009 46.6405 123.003 48.9765 120.23 50.5125C117.478 52.0272 113.787 52.7845 109.158 52.7845ZM109.478 46.9605C111.206 46.9605 112.678 46.6405 113.894 46.0005C115.11 45.3392 116.027 44.4112 116.646 43.2165C117.286 42.0005 117.606 40.5818 117.606 38.9605C117.606 37.3392 117.307 35.9845 116.71 34.8965C116.113 33.8085 115.27 32.9872 114.182 32.4325C113.115 31.8565 111.835 31.5685 110.342 31.5685C108.657 31.5685 107.185 31.8778 105.926 32.4965C104.667 33.0938 103.686 33.9792 102.982 35.1525C102.278 36.3258 101.926 37.7445 101.926 39.4085C101.926 40.9658 102.235 42.3098 102.854 43.4405C103.473 44.5498 104.347 45.4138 105.478 46.0325C106.63 46.6512 107.963 46.9605 109.478 46.9605Z" fill="#CC3A3A"/>
<path d="M77.8326 53.3923C74.1846 53.3923 71.0166 52.8377 68.3286 51.7283C65.6406 50.619 63.5606 48.9123 62.0886 46.6083C60.6379 44.3043 59.9126 41.3817 59.9126 37.8403C59.9126 34.8963 60.4033 32.3257 61.3846 30.1283C62.3659 27.9097 63.7206 26.0643 65.4486 24.5923C67.1979 23.099 69.2139 21.979 71.4966 21.2323C73.7793 20.4643 76.2113 20.0803 78.7926 20.0803C80.5419 20.0803 82.2273 20.2617 83.8486 20.6243C85.4699 20.9657 86.9099 21.5097 88.1686 22.2563C89.4486 23.003 90.4513 23.963 91.1766 25.1363C91.9233 26.3097 92.2966 27.7283 92.2966 29.3923C92.2966 30.9923 91.9659 32.315 91.3046 33.3603C90.6646 34.4057 89.7793 35.2377 88.6486 35.8563C87.5393 36.475 86.2593 36.9443 84.8086 37.2643C83.3793 37.5843 81.8859 37.8403 80.3286 38.0323C79.4539 38.2243 78.3873 38.395 77.1286 38.5443C75.8913 38.6937 74.6753 38.811 73.4806 38.8963C72.2859 38.9817 71.3366 39.0243 70.6326 39.0243C69.9926 39.0243 69.5446 39.1097 69.2886 39.2803C69.0539 39.4297 68.9366 39.7283 68.9366 40.1763C68.9366 40.6243 69.0646 41.1577 69.3206 41.7763C69.5766 42.395 69.9393 42.9817 70.4086 43.5363C71.2833 44.5603 72.2966 45.2537 73.4486 45.6163C74.6006 45.9577 76.0299 46.1283 77.7366 46.1283C79.3153 46.1283 80.8086 45.9257 82.2166 45.5203C83.6459 45.0937 84.9793 44.6777 86.2166 44.2723C87.4753 43.8457 88.6486 43.6323 89.7366 43.6323C90.7819 43.6323 91.6033 43.835 92.2006 44.2403C92.8193 44.6243 93.1286 45.3817 93.1286 46.5123C93.1286 47.515 92.7233 48.443 91.9126 49.2963C91.1233 50.1283 90.0246 50.843 88.6166 51.4403C87.2299 52.059 85.6086 52.539 83.7526 52.8803C81.8966 53.2217 79.9233 53.3923 77.8326 53.3923ZM75.5286 34.8643C77.0219 34.8643 78.4299 34.715 79.7526 34.4163C81.0753 34.0963 82.1526 33.5843 82.9846 32.8803C83.8166 32.155 84.2326 31.1737 84.2326 29.9363C84.2326 28.443 83.6886 27.3443 82.6006 26.6403C81.5339 25.9363 80.0513 25.5843 78.1526 25.5843C77.0219 25.5843 75.9233 25.787 74.8566 26.1923C73.7899 26.5763 72.8299 27.1203 71.9766 27.8243C71.1233 28.507 70.4406 29.2963 69.9286 30.1923C69.4379 31.0883 69.1926 32.0377 69.1926 33.0403C69.1926 33.595 69.4059 34.0003 69.8326 34.2563C70.2593 34.5123 70.9313 34.683 71.8486 34.7683C72.7873 34.8323 74.0139 34.8643 75.5286 34.8643Z" fill="#CC3A3A"/>
<path d="M15.9619 52.5605C14.5539 52.5605 13.5299 52.1765 12.8899 51.4085C12.2499 50.6619 11.6953 49.5525 11.2259 48.0805C11.0126 47.2059 10.8206 46.2565 10.6499 45.2325C10.5006 44.1872 10.3726 43.0992 10.2659 41.9685C10.1806 40.8165 10.1059 39.6432 10.0419 38.4485C9.99927 37.2325 9.9886 36.0165 10.0099 34.8005C10.0313 33.3712 10.0846 31.9205 10.1699 30.4485C10.2766 28.9552 10.4153 27.5152 10.5859 26.1285C10.7566 24.7419 10.9593 23.4939 11.1939 22.3845C11.4286 21.2539 11.6953 20.3365 11.9939 19.6325C12.6339 17.9899 13.4766 16.6992 14.5219 15.7605C15.5673 14.8005 16.7406 14.1179 18.0419 13.7125C19.3433 13.3072 20.6873 13.1045 22.0739 13.1045C23.5886 13.1045 24.9113 13.3925 26.0419 13.9685C27.1939 14.5445 28.1113 15.3979 28.7939 16.5285C29.1566 17.1472 29.5193 17.9152 29.8819 18.8325C30.2446 19.7285 30.5859 20.6992 30.9059 21.7445C31.2473 22.7899 31.5566 23.8459 31.8339 24.9125C32.1113 25.9579 32.3566 26.9499 32.5699 27.8885C32.8046 29.0192 33.0713 30.0112 33.3699 30.8645C33.6899 31.6965 34.1486 32.1125 34.7459 32.1125C35.3646 32.1125 35.8339 31.7392 36.1539 30.9925C36.4739 30.2459 36.7299 29.4139 36.9219 28.4965C37.1139 27.4939 37.3273 26.4485 37.5619 25.3605C37.7966 24.2725 38.0526 23.1952 38.3299 22.1285C38.6073 21.0405 38.8953 20.0272 39.1939 19.0885C39.5139 18.1285 39.8446 17.2752 40.1859 16.5285C40.8473 15.3979 41.7113 14.5339 42.7779 13.9365C43.8659 13.3392 45.2953 13.0405 47.0659 13.0405C48.4313 13.0405 49.6793 13.2752 50.8099 13.7445C51.9406 14.1925 52.9433 14.8432 53.8179 15.6965C54.6926 16.5499 55.4393 17.5845 56.0579 18.8005C56.6339 19.8672 57.1246 21.2112 57.5299 22.8325C57.9353 24.4539 58.2446 26.2565 58.4579 28.2405C58.6713 30.2032 58.7886 32.2512 58.8099 34.3845C58.8313 35.5152 58.8313 36.6459 58.8099 37.7765C58.8099 38.9072 58.7779 40.0272 58.7139 41.1365C58.6713 42.2459 58.5859 43.3339 58.4579 44.4005C58.3513 45.4672 58.2126 46.5019 58.0419 47.5045C57.6366 48.9125 57.0179 49.9365 56.1859 50.5765C55.3753 51.1952 54.2446 51.5045 52.7939 51.5045C51.8766 51.5045 51.1619 51.3019 50.6499 50.8965C50.1379 50.4699 49.7966 49.8939 49.6259 49.1685C49.5619 48.5712 49.4979 47.9205 49.4339 47.2165C49.3913 46.4912 49.3379 45.7552 49.2739 45.0085C49.2099 44.2405 49.1459 43.4725 49.0819 42.7045C49.0179 41.9365 48.9646 41.1792 48.9219 40.4325C48.8579 39.0032 48.7726 37.6059 48.6659 36.2405C48.5593 34.8752 48.4313 33.6485 48.2819 32.5605C48.1539 31.4725 47.9939 30.6405 47.8019 30.0645C47.4819 28.9552 47.0979 28.1125 46.6499 27.5365C46.2233 26.9605 45.6046 26.6725 44.7939 26.6725C44.0473 26.6725 43.4073 26.9819 42.8739 27.6005C42.3619 28.1979 41.9673 29.0725 41.6899 30.2245C41.5833 30.6512 41.4553 31.2059 41.3059 31.8885C41.1779 32.5499 41.0393 33.2859 40.8899 34.0965C40.7619 34.9072 40.6126 35.7392 40.4419 36.5925C40.2926 37.4459 40.1433 38.2885 39.9939 39.1205C39.8446 39.9525 39.7059 40.7205 39.5779 41.4245C39.2153 42.9605 38.6499 44.1339 37.8819 44.9445C37.1139 45.7339 36.0153 46.1285 34.5859 46.1285C32.9646 46.1285 31.7913 45.6272 31.0659 44.6245C30.3406 43.6219 29.6793 42.2459 29.0819 40.4965C28.9326 39.9632 28.7619 39.3125 28.5699 38.5445C28.3993 37.7552 28.2073 36.9125 27.9939 36.0165C27.8019 35.0992 27.5993 34.1925 27.3859 33.2965C27.1939 32.3792 27.0019 31.5365 26.8099 30.7685C26.6393 30.0005 26.4793 29.3605 26.3299 28.8485C26.0526 27.8245 25.7006 27.0672 25.2739 26.5765C24.8473 26.0859 24.3246 25.8405 23.7059 25.8405C22.8526 25.8405 22.2339 26.1819 21.8499 26.8645C21.4659 27.5472 21.1566 28.6139 20.9219 30.0645C20.8579 30.5339 20.7939 31.1312 20.7299 31.8565C20.6659 32.5605 20.6126 33.3499 20.5699 34.2245C20.5273 35.0992 20.4953 36.0379 20.4739 37.0405C20.4526 38.0432 20.4419 39.0885 20.4419 40.1765C20.4419 41.2645 20.4313 42.2992 20.4099 43.2805C20.3886 44.2619 20.3566 45.1792 20.3139 46.0325C20.2713 46.8645 20.2073 47.6112 20.1219 48.2725C20.0579 48.9125 19.9619 49.4565 19.8339 49.9045C19.5139 50.7152 19.0339 51.3552 18.3939 51.8245C17.7753 52.3152 16.9646 52.5605 15.9619 52.5605Z" fill="#CC3A3A"/>
<path d="M198.87 12C202.125 12.0001 205.667 12.8225 208.785 15.1465L208.786 15.1455C208.806 15.1602 208.826 15.1756 208.846 15.1904C208.852 15.1949 208.857 15.1996 208.863 15.2041H208.862C209.688 15.8217 210.445 16.496 211.138 17.2178C212.277 16.1849 213.541 15.2674 214.935 14.4971V14.4961C214.953 14.4859 214.971 14.4759 214.989 14.4658C215.01 14.4544 215.031 14.443 215.052 14.4316V14.4326C218.012 12.8008 221.178 12.1924 224.182 12.1924C228.407 12.1924 232.862 13.4164 236.476 16.7451H236.477C239.502 19.4955 241.36 22.9575 242.39 26.5645H242.391C243.342 29.8319 243.75 33.2708 243.75 36.7842L243.742 37.6738C243.728 38.5151 243.694 39.3655 243.643 40.2246C243.594 41.3557 243.522 42.4863 243.426 43.6162L243.425 43.626L243.424 43.6348C243.318 44.8493 243.171 46.0467 242.979 47.2236C242.783 48.4336 242.533 49.625 242.22 50.7852L242.171 50.9639L242.116 51.1406C241.43 53.3528 240.119 56.2656 237.424 58.5264C234.567 60.9225 231.249 61.6963 228.405 61.6963C225.798 61.6962 222.82 61.0385 220.147 59.0889L219.89 58.8965L219.741 58.7832L219.598 58.6641C217.801 57.1771 216.503 55.3646 215.635 53.4316C213.645 54.2766 211.536 54.6562 209.462 54.6562C207.478 54.6562 205.354 54.3035 203.327 53.4336C202.688 54.9292 201.757 56.4875 200.373 57.8711L200.312 57.9316L200.252 57.9902C196.938 61.1938 192.841 61.7285 190.262 61.7285C187.704 61.7285 184.631 61.1026 181.881 59.0322L181.616 58.8271L181.467 58.709L181.322 58.585C179.088 56.6699 177.787 54.3048 177.064 52.0908L176.928 51.6494C176.824 51.2971 176.731 50.9443 176.649 50.5918C178.912 49.273 180.709 47.4565 182.034 45.1367C183.57 42.4274 184.445 39.0564 184.658 35.0244C184.701 34.2778 184.733 33.5308 184.754 32.7842C184.775 32.0164 184.786 31.2592 184.786 30.5127C184.786 29.7447 184.764 28.9869 184.722 28.2402C184.679 27.4936 184.626 26.7575 184.562 26.0322C184.306 24.7098 183.858 23.6753 183.218 22.9287C182.779 22.417 182.205 22.08 181.496 21.9189C182.856 19.7779 184.53 17.8015 186.6 16.1562L186.624 16.1367L186.647 16.1182C190.264 13.2795 194.512 12 198.87 12ZM198.87 22C196.523 22 194.507 22.6617 192.821 23.9844C191.157 25.307 189.75 27.2378 188.598 29.7764C188.235 30.6724 187.915 31.6431 187.638 32.6885C187.36 33.7125 187.126 34.7903 186.934 35.9209C186.742 37.03 186.582 38.1498 186.454 39.2803C186.326 40.3894 186.23 41.4774 186.166 42.5439C186.123 43.5892 186.102 44.571 186.102 45.4883C186.102 46.7683 186.24 47.8778 186.518 48.8164C186.795 49.7551 187.233 50.4802 187.83 50.9922C188.371 51.4214 189.059 51.6631 189.895 51.7168L190.262 51.7285C191.562 51.7285 192.534 51.4569 193.178 50.9131L193.302 50.8008C193.942 50.1608 194.4 49.0938 194.678 47.6006C194.726 46.7847 194.792 45.9207 194.876 45.0088L194.966 44.0801C195.115 42.8002 195.328 41.4775 195.605 40.1123C195.904 38.747 196.278 37.4136 196.726 36.1123C197.195 34.9177 197.696 34.032 198.229 33.4561C198.784 32.8589 199.371 32.5607 199.989 32.5605C200.672 32.5605 201.238 32.8488 201.686 33.4248C202.133 33.9795 202.529 34.7582 202.87 35.7607C203.211 36.742 203.563 37.8834 203.926 39.1846C204.374 40.8485 205.014 42.1819 205.846 43.1846C206.626 44.1045 207.734 44.5929 209.17 44.6504L209.462 44.6562C211.04 44.6562 212.31 44.1549 213.27 43.1523C214.23 42.1497 215.179 40.6351 216.118 38.6084C216.673 37.4565 217.228 36.3786 217.782 35.376C218.337 34.3736 218.913 33.5629 219.51 32.9443C220.128 32.3257 220.768 32.0166 221.43 32.0166C222.112 32.0166 222.656 32.315 223.062 32.9121C223.467 33.4881 223.776 34.2777 223.989 35.2803C224.203 36.2616 224.341 37.3394 224.405 38.5127C224.427 39.4726 224.438 40.3901 224.438 41.2646C224.437 42.1178 224.427 42.9176 224.405 43.6641V45.7441C224.405 46.3841 224.416 46.9715 224.438 47.5049C224.48 48.038 224.534 48.5178 224.598 48.9443C224.896 49.7762 225.355 50.448 225.974 50.96C226.614 51.4506 227.424 51.6962 228.405 51.6963C229.405 51.6963 230.227 51.4523 230.871 50.9648L230.998 50.8643C231.577 50.3789 232.049 49.632 232.415 48.624L232.565 48.1768C232.779 47.3874 232.96 46.5335 233.109 45.6162C233.259 44.699 233.377 43.7498 233.462 42.7686C233.547 41.766 233.611 40.7633 233.653 39.7607C233.717 38.7367 233.75 37.7442 233.75 36.7842C233.75 34.0323 233.43 31.5576 232.79 29.3604C232.21 27.3002 231.283 25.6434 230.009 24.3896L229.75 24.1445C228.363 22.8432 226.507 22.1924 224.182 22.1924C222.496 22.1924 221.046 22.5342 219.83 23.2168C218.614 23.8781 217.525 24.8054 216.565 26C215.627 27.1947 214.709 28.6033 213.813 30.2246C213.131 31.4405 212.47 32.4114 211.83 33.1367C211.212 33.8619 210.571 34.2245 209.91 34.2246C209.334 34.2246 208.822 33.8294 208.374 33.04C207.947 32.2507 207.552 31.3333 207.189 30.2881C206.741 28.8802 206.166 27.5466 205.462 26.2881C204.779 25.0082 203.904 23.9739 202.838 23.1846C201.793 22.3953 200.47 22.0001 198.87 22Z" fill="#1E1E1E"/>
<path d="M142.795 32.9766C142.838 31.9314 142.859 31.0674 142.859 30.3848C142.859 28.3798 142.507 26.8222 141.804 25.7129C141.1 24.5823 139.979 24.0166 138.443 24.0166C138.3 24.0166 138.159 24.0194 138.021 24.0254C138.11 23.7048 138.204 23.3853 138.306 23.0684L138.309 23.0576L138.312 23.0469C138.687 21.8907 139.191 20.6663 139.873 19.4609C140.557 19.3813 141.211 19.2589 141.835 19.0889C143.03 18.7689 143.98 18.2567 144.684 17.5527C145.409 16.8274 145.771 15.8883 145.771 14.7363C145.771 14.3292 145.733 13.9531 145.658 13.6074C148.005 12.2826 150.58 11.6807 153.138 11.6807C155.201 11.6807 158.527 11.9959 161.564 14.1396L161.857 14.3525C164.018 15.973 165.7 18.2294 166.558 20.9785H166.559C166.603 21.1153 166.643 21.2535 166.684 21.3916C167.348 19.6381 168.337 17.8573 169.807 16.2578L169.814 16.25C172.977 12.8169 177.087 11.8086 180.434 11.8086C183.713 11.8086 187.581 12.8747 190.528 16.1016L190.811 16.4209L191.193 16.8857C192.772 18.8895 193.654 21.0966 194.153 23.1123C193.688 23.361 193.244 23.6523 192.821 23.9844C191.157 25.307 189.75 27.2378 188.598 29.7764C188.235 30.6724 187.915 31.6431 187.638 32.6885C187.36 33.7125 187.126 34.7903 186.934 35.9209C186.742 37.03 186.582 38.1498 186.454 39.2803C186.326 40.3894 186.23 41.4774 186.166 42.5439C186.123 43.5892 186.102 44.571 186.102 45.4883C186.102 46.2218 186.149 46.8991 186.24 47.5205L182.034 45.1367C183.57 42.4274 184.445 39.0564 184.658 35.0244C184.701 34.2778 184.733 33.5308 184.754 32.7842C184.775 32.0164 184.786 31.2592 184.786 30.5127C184.786 29.7447 184.764 28.9869 184.722 28.2402C184.679 27.4936 184.626 26.7575 184.562 26.0322C184.306 24.7098 183.858 23.6753 183.218 22.9287C182.578 22.182 181.65 21.8086 180.434 21.8086C179.004 21.8086 177.917 22.2138 177.17 23.0244C176.445 23.8137 175.932 24.9124 175.634 26.3203C175.527 26.9816 175.431 27.6434 175.346 28.3047C175.282 28.9658 175.217 29.6269 175.153 30.2881C175.111 30.9494 175.047 31.6111 174.962 32.2725C174.898 32.9124 174.802 33.5416 174.674 34.1602C174.332 36.4002 173.82 38.2991 173.138 39.8564C172.455 41.3923 171.506 42.5653 170.29 43.376C169.095 44.1653 167.548 44.5605 165.649 44.5605C163.73 44.5605 162.194 44.0591 161.042 43.0566C159.911 42.0327 159.079 40.6139 158.546 38.8008C158.034 36.9661 157.714 34.8106 157.586 32.3359C157.543 31.8881 157.511 31.3974 157.489 30.8643C157.489 30.331 157.479 29.7761 157.458 29.2002C157.458 28.6243 157.447 28.0694 157.426 27.5361C157.426 26.9816 157.415 26.4802 157.394 26.0322C157.372 25.3711 157.255 24.7099 157.042 24.0488C156.85 23.3662 156.455 22.8005 155.857 22.3525C155.26 21.9046 154.354 21.6807 153.138 21.6807C151.879 21.6807 150.801 22.0432 149.905 22.7686C149.01 23.4938 148.317 24.6137 147.826 26.1279C147.634 26.7253 147.463 27.3979 147.313 28.1445C147.186 28.8697 147.089 29.6269 147.025 30.416C146.961 31.2053 146.93 32.0057 146.93 32.8164C146.93 36.0377 147.292 38.9075 148.018 41.4248C148.743 43.9419 149.852 46.075 151.346 47.8242C152.86 49.5736 154.77 50.9069 157.074 51.8242C159.399 52.7415 162.152 53.2002 165.33 53.2002C169.341 53.2002 172.743 52.5285 175.538 51.1846C178.158 49.9246 180.225 48.0739 181.738 45.6328L182.034 45.1367L186.24 47.5205C186.308 47.9835 186.399 48.4157 186.518 48.8164C186.795 49.7551 187.233 50.4802 187.83 50.9922C188.333 51.3912 188.964 51.6247 189.721 51.6992C187.248 55.376 183.919 58.2498 179.872 60.1963C175.389 62.3523 170.417 63.2002 165.33 63.2002C161.479 63.2002 157.675 62.6826 154.113 61.3945L153.404 61.127L153.375 61.1152C149.922 59.7406 146.834 57.6923 144.288 54.9316L143.786 54.3701L143.763 54.3438L143.74 54.3174C142.451 52.8077 141.372 51.1744 140.482 49.4492C140.621 49.2128 140.754 48.9602 140.875 48.6885C141.067 48.1979 141.248 47.5152 141.419 46.6406C141.59 45.7447 141.75 44.7312 141.899 43.6006C142.049 42.4486 142.177 41.2539 142.283 40.0166C142.411 38.7579 142.518 37.5306 142.604 36.3359C142.689 35.1202 142.752 34.0004 142.795 32.9766Z" fill="#1E1E1E"/>
<path d="M145.771 14.7363C145.771 13.691 145.526 12.848 145.035 12.208C144.624 11.6294 144.083 11.1896 143.411 10.8887L143.115 10.7686C142.326 10.4486 141.451 10.2881 140.491 10.2881C140.057 10.2881 139.621 10.3155 139.184 10.3672C138.874 10.1579 138.586 10.0015 138.337 9.88379C138.159 10.0041 137.963 10.1514 137.762 10.3369L137.612 10.4814C137.534 10.5601 137.456 10.6408 137.381 10.7246C137.128 10.795 136.873 10.8725 136.619 10.96C135.318 11.3866 134.23 12.0166 133.355 12.8486C132.481 13.6806 132.043 14.7049 132.043 15.9209C132.043 16.8807 132.481 17.7339 133.355 18.4805C134.23 19.2057 135.777 19.5683 137.995 19.5684C139.382 19.5684 140.662 19.4088 141.835 19.0889C143.03 18.7689 143.98 18.2567 144.684 17.5527C145.364 16.8728 145.724 16.0051 145.767 14.9502L145.771 14.7363ZM155.771 14.7363C155.771 17.0904 155.221 19.5153 153.969 21.7207C153.71 21.6943 153.433 21.6807 153.138 21.6807C151.879 21.6807 150.801 22.0432 149.905 22.7686C149.01 23.4938 148.317 24.6137 147.826 26.1279C147.634 26.7253 147.463 27.3979 147.313 28.1445C147.186 28.8697 147.089 29.6269 147.025 30.416C146.961 31.2053 146.93 32.0057 146.93 32.8164C146.93 32.9262 146.931 33.0356 146.932 33.1445L142.795 32.9766C142.816 32.4537 142.832 31.9761 142.843 31.5439L142.859 30.3848C142.859 28.3798 142.507 26.8222 141.804 25.7129C141.1 24.5823 139.979 24.0166 138.443 24.0166C136.822 24.0166 135.489 24.4001 134.443 25.168C133.398 25.9146 132.609 27.0568 132.075 28.5928C131.947 29.1047 131.819 29.7766 131.691 30.6084C131.585 31.4404 131.478 32.3686 131.371 33.3926L131.22 34.96C131.172 35.4935 131.126 36.0379 131.083 36.5928C130.998 37.6806 130.923 38.7577 130.859 39.8242C130.817 40.8908 130.774 41.9043 130.731 42.8643C130.689 43.8028 130.667 44.6242 130.667 45.3281C130.667 46.8214 130.806 48.0696 131.083 49.0723C131.382 50.0535 131.894 50.7896 132.619 51.2803C133.254 51.7096 134.101 51.9512 135.16 52.0049L135.627 52.0166C136.864 52.0166 137.91 51.76 138.764 51.248C139.638 50.736 140.342 49.8829 140.875 48.6885C141.019 48.3205 141.157 47.8446 141.289 47.2607L141.419 46.6406C141.59 45.7447 141.75 44.7312 141.899 43.6006C142.011 42.7366 142.111 41.8485 142.199 40.9365L142.283 40.0166C142.411 38.7579 142.518 37.5306 142.604 36.3359C142.646 35.728 142.683 35.144 142.715 34.584L142.795 32.9766L146.932 33.1445C146.956 36.2329 147.317 38.9933 148.018 41.4248C148.743 43.9419 149.852 46.075 151.346 47.8242C151.351 47.8308 151.358 47.8372 151.363 47.8438C151.323 48.0694 151.284 48.2924 151.242 48.5117L151.238 48.5332L151.234 48.5557C151.016 49.6763 150.697 51.0292 150.188 52.332L150.103 52.5508L150.007 52.7646C148.87 55.3119 146.953 58.0423 143.815 59.8789L143.813 59.877C141.096 61.4803 138.209 62.0166 135.627 62.0166C133.3 62.0166 130.197 61.6066 127.296 59.748L127.017 59.5635C124.263 57.7009 122.582 55.1126 121.686 52.5059L121.517 51.9844L121.479 51.8613L121.445 51.7383C121.287 51.1656 121.158 50.589 121.054 50.0127C123.403 48.4869 125.135 46.3202 126.246 43.5049C127.483 40.3689 128.102 36.3897 128.102 31.5684C128.102 30.6084 128.048 29.4671 127.941 28.1445C127.856 26.8007 127.707 25.3927 127.494 23.9209C127.302 22.4276 127.077 20.9764 126.821 19.5684C126.565 18.1391 126.278 16.8374 125.958 15.6641C125.659 14.4695 125.349 13.5204 125.029 12.8164C124.484 11.9404 123.796 11.2797 122.967 10.8301C123.708 8.88183 124.884 7.10408 126.463 5.60254L126.858 5.23828C128.815 3.48858 131.05 2.28297 133.364 1.50586V1.50488C133.401 1.49228 133.438 1.48117 133.475 1.46875C133.484 1.46552 133.494 1.46123 133.504 1.45801V1.45898C135.732 0.707451 138.073 0.28809 140.491 0.288086C142.576 0.288086 144.747 0.639498 146.872 1.50098L146.871 1.50195C149.219 2.42548 151.348 3.96052 152.971 6.125C155.15 8.96778 155.771 12.1464 155.771 14.7363Z" fill="#1E1E1E"/>
<path d="M105.078 14.6406C105.078 11.5525 105.857 7.399 109.167 4.08887C112.477 0.779072 116.63 0 119.718 0C122.21 4.61519e-06 124.697 0.535121 127.032 1.68066L127.033 1.67969C127.059 1.69211 127.084 1.7062 127.11 1.71875C127.167 1.74678 127.224 1.77301 127.28 1.80176L127.279 1.80371C129.797 3.06116 131.78 4.91294 133.229 7.08105L133.521 7.5332L133.864 8.08594L134.134 8.67871C134.557 9.60903 134.904 10.5863 135.196 11.5518C134.503 11.9086 133.89 12.3406 133.355 12.8486C132.481 13.6806 132.043 14.7049 132.043 15.9209C132.043 16.8807 132.481 17.7339 133.355 18.4805C134.087 19.087 135.289 19.4388 136.96 19.5381C137.117 20.5084 137.261 21.4911 137.391 22.4863C137.467 23.012 137.534 23.5347 137.597 24.0537C136.352 24.167 135.301 24.5382 134.443 25.168C133.398 25.9146 132.609 27.0568 132.075 28.5928C131.947 29.1047 131.819 29.7766 131.691 30.6084C131.585 31.4404 131.478 32.3686 131.371 33.3926C131.264 34.4165 131.168 35.4835 131.083 36.5928C130.998 37.6806 130.923 38.7577 130.859 39.8242C130.817 40.8908 130.774 41.9043 130.731 42.8643C130.689 43.8028 130.667 44.6242 130.667 45.3281C130.667 46.8214 130.806 48.0696 131.083 49.0723C131.382 50.0535 131.894 50.7896 132.619 51.2803C132.815 51.4127 133.031 51.5264 133.268 51.623C131.235 54.7585 128.5 57.3636 125.075 59.2607L125.063 59.2666L125.052 59.2734C120.287 61.8961 114.732 62.7841 109.158 62.7842C104.937 62.7842 100.768 62.0892 96.9023 60.3809V60.3818C96.895 60.3786 96.8882 60.3743 96.8809 60.3711C96.8651 60.3641 96.8487 60.3586 96.833 60.3516V60.3496C92.8263 58.5861 89.4678 55.8037 87.0811 52.0342C87.621 51.8523 88.1332 51.6559 88.6162 51.4404C90.024 50.8432 91.1228 50.1287 91.9121 49.2969C92.7227 48.4436 93.1279 47.5153 93.1279 46.5127C93.1279 45.382 92.8189 44.6242 92.2002 44.2402C91.6029 43.835 90.7816 43.6328 89.7363 43.6328C88.6483 43.6328 87.4745 43.8458 86.2158 44.2725C85.5672 44.485 84.8919 44.6996 84.1904 44.918C83.7392 42.8906 83.542 40.823 83.542 38.7686L83.5508 37.9863C83.5545 37.8311 83.5614 37.6759 83.5674 37.5205C83.9861 37.4396 84.4004 37.356 84.8086 37.2646C86.2591 36.9446 87.5392 36.4751 88.6484 35.8564C89.779 35.2378 90.6647 34.4056 91.3047 33.3604C91.9659 32.3151 92.2959 30.9924 92.2959 29.3926C92.2959 27.7286 91.9224 26.3101 91.1758 25.1367C90.6208 24.2389 89.9033 23.4664 89.0234 22.8184C90.8324 20.7405 93.0351 19.0532 95.5703 17.8057L96.2861 17.4668C99.0994 16.1936 102.08 15.5279 105.09 15.2969C105.083 15.0764 105.078 14.8573 105.078 14.6406ZM110.342 31.5684C111.835 31.5684 113.115 31.8566 114.182 32.4326C115.27 32.9873 116.113 33.8085 116.71 34.8965C117.307 35.9844 117.605 37.3389 117.605 38.96C117.605 40.5813 117.286 42.0008 116.646 43.2168C116.027 44.4113 115.109 45.3387 113.894 46C112.678 46.64 111.206 46.96 109.478 46.96C107.963 46.9599 106.629 46.6509 105.478 46.0322C104.347 45.4136 103.472 44.5497 102.854 43.4404C102.235 42.3098 101.926 40.9655 101.926 39.4082C101.926 37.7443 102.278 36.3256 102.981 35.1523C103.685 33.979 104.667 33.0934 105.926 32.4961C107.184 31.8775 108.657 31.5684 110.342 31.5684ZM110.169 39.8623L109.478 41.1445V41.251C109.494 41.2607 109.511 41.27 109.528 41.2793C109.808 41.4204 110.038 41.4944 110.191 41.5312C110.222 41.5193 110.256 41.506 110.292 41.4893C110.308 41.4809 110.325 41.473 110.342 41.4639V39.9521L110.169 39.8623ZM110.342 39.9639V41.4639C110.52 41.3665 110.73 41.2265 110.944 41.0332C111.002 40.9816 111.054 40.9277 111.105 40.875L110.707 40.1416L110.347 39.9541L110.342 39.9639ZM109.433 41.2266C109.447 41.2353 109.463 41.2425 109.478 41.251V41.1445L109.433 41.2266ZM108.623 40.2832L108.514 40.4824C108.558 40.5295 108.601 40.579 108.649 40.626C108.905 40.8755 109.175 41.074 109.433 41.2266L109.478 41.1445V39.9805L109.415 39.8496L108.623 40.2832ZM109.478 41.1445L109.771 40.5996L109.478 39.9805V41.1445ZM111.164 40.8135C111.259 40.7111 111.342 40.6083 111.415 40.5078L110.849 40.2139L111.164 40.8135ZM109.478 39.8154V39.9805L109.771 40.5996L109.843 40.4668L109.514 39.7959L109.478 39.8154ZM110.585 39.7148L110.849 40.2139L111.415 40.5078C111.467 40.4357 111.516 40.3662 111.557 40.2979L110.585 39.7148ZM109.514 39.7959L109.843 40.4668L110.169 39.8623L109.77 39.6553L109.514 39.7959ZM108.427 40.3906C108.443 40.409 108.461 40.426 108.478 40.4443L108.54 40.3281L108.427 40.3906ZM107.782 38.5879C107.707 38.7352 107.662 38.8628 107.635 38.9561C107.677 39.1171 107.764 39.3811 107.944 39.709L108.072 39.9238C108.161 40.0605 108.268 40.2037 108.393 40.3496L108.587 40.2422L109.091 39.3037L108.88 39.1943L108.941 39.1611L107.798 38.5596C107.793 38.5691 107.787 38.5784 107.782 38.5879ZM110.472 39.708L110.347 39.9541L110.707 40.1416L110.472 39.708ZM109.415 39.8496L109.478 39.9805V39.8154L109.415 39.8496ZM110.342 39.9639L110.347 39.9541L110.342 39.9521V39.9639ZM110.342 39.9521L110.347 39.9541L110.368 39.9121L110.342 39.8975V39.9521ZM110.169 39.8623L110.342 39.9521V39.8975L110.192 39.8193L110.169 39.8623ZM110.342 39.8975L110.368 39.9121L110.472 39.708L110.422 39.6162L110.342 39.5684V39.8975ZM110.145 39.4502L109.77 39.6553L110.169 39.8623L110.192 39.8193L110.342 39.8975V39.5684L110.145 39.4502ZM109.478 39.7217L109.486 39.7402L109.701 39.6201L109.478 39.5039V39.7217ZM109.478 39.7217V39.5039L109.334 39.4297L109.478 39.7217ZM109.891 38.6396L109.478 38.8672V39.5039L109.701 39.6201L110.256 39.3115L109.891 38.6396ZM110.342 39.5439V39.5684L110.422 39.6162L110.361 39.5059L110.342 39.5439ZM110.331 39.5625L110.342 39.5684V39.5439L110.331 39.5625ZM110.342 39.5439L110.361 39.5059L110.342 39.4688V39.5439ZM110.495 39.2588L110.419 39.3994L110.526 39.6016L110.78 39.1025L110.495 39.2588ZM111.281 38.1201L110.841 38.9854L111.587 38.5693C111.507 38.4253 111.404 38.2736 111.281 38.1201ZM109.219 39.1953L109.292 39.3457L109.478 39.4424V39.0498L109.342 38.9688L109.219 39.1953ZM110.379 39.3223L110.419 39.3994L110.495 39.2588L110.379 39.3223ZM109.144 39.332L109.178 39.3496L109.157 39.3066L109.144 39.332ZM109.171 39.2822L109.292 39.3457L109.219 39.1953L109.171 39.2822ZM109.058 39.0967L108.88 39.1943L109.091 39.3037L109.125 39.2393L109.058 39.0967ZM111.281 38.1201C111.237 38.0646 111.19 38.0094 111.14 37.9541L110.342 38.3926V39.251L110.347 39.2607L110.841 38.9854L111.281 38.1201ZM109.058 39.0967L109.125 39.2393L109.186 39.1279L109.146 39.0488L109.058 39.0967ZM108.035 38.1846C107.943 38.3111 107.864 38.4378 107.798 38.5596L108.941 39.1611L109.262 38.9854L109.288 38.9365L108.035 38.1846ZM109.146 39.0488L109.186 39.1279L109.262 38.9854L109.146 39.0488ZM109.364 38.9287L109.342 38.9688L109.478 39.0498V38.8672L109.364 38.9287ZM109.116 37.2158C108.94 37.3116 108.714 37.4651 108.478 37.6875L109.009 38.7686L109.288 38.9365L109.478 38.584V37.8799L109.116 37.2158ZM109.364 38.9287L109.478 38.8672V38.7227L109.364 38.9287ZM109.478 38.7227V38.8672L109.891 38.6396L109.707 38.3027L109.478 38.7227ZM108.416 37.7451L108.859 38.6797L109.009 38.7686L108.478 37.6875C108.457 37.7065 108.436 37.7251 108.416 37.7451ZM108.382 37.7783C108.251 37.9108 108.135 38.0478 108.035 38.1846L108.859 38.6797L108.416 37.7451C108.405 37.7562 108.393 37.7669 108.382 37.7783ZM109.775 38.1768L109.99 38.585L110.342 38.3926V37.2969C110.32 37.2842 110.299 37.2712 110.278 37.2598L109.775 38.1768ZM109.478 38.584L109.667 38.2295L109.478 37.8799V38.584ZM110.342 38.3926L111.14 37.9541C111.095 37.905 111.05 37.854 111.001 37.8057C110.771 37.5784 110.54 37.4122 110.342 37.2969V38.3926ZM109.612 36.9902C109.573 37.0032 109.528 37.0185 109.478 37.0391V37.6094L109.736 38.1016L110.209 37.2227C109.976 37.0975 109.766 37.0268 109.612 36.9902ZM109.478 37.0391C109.407 37.0678 109.326 37.1043 109.236 37.1514L109.478 37.6094V37.0391ZM108.672 40.1943L109.486 39.7402L109.334 39.4297L109.478 39.5039V39.4424L109.171 39.2822L109.157 39.3066L109.178 39.3496L109.144 39.332L108.672 40.1943ZM110.145 39.4502L110.331 39.5625L110.342 39.5439V39.4688L110.288 39.3721L110.145 39.4502ZM110.342 39.251V38.3926L109.99 38.585L110.342 39.251ZM110.78 39.1025L110.526 39.6016L110.585 39.7148L111.557 40.2979C111.749 39.9774 111.849 39.6932 111.896 39.5049C111.905 39.4649 111.909 39.4306 111.914 39.4043C111.911 39.3865 111.909 39.3654 111.903 39.3418C111.867 39.1832 111.786 38.9333 111.626 38.6406L110.78 39.1025ZM115.086 15.0547C115.102 15.4986 115.142 16.0324 115.206 16.6562C115.313 17.4881 115.43 18.3948 115.558 19.376C115.707 20.336 115.846 21.2968 115.974 22.2568C116.123 23.2166 116.241 24.1016 116.326 24.9121C116.412 25.7014 116.454 26.3314 116.454 26.8008C116.454 27.3979 116.294 27.6963 115.974 27.6963C115.803 27.6963 115.536 27.611 115.174 27.4404C114.832 27.2484 114.437 27.0246 113.989 26.7686C113.349 26.406 112.518 26.0541 111.494 25.7129C110.47 25.3716 109.179 25.2002 107.622 25.2002C104.657 25.2002 102.118 25.7232 100.006 26.7686C97.9152 27.7926 96.3154 29.3181 95.2061 31.3447C94.0968 33.35 93.542 35.8246 93.542 38.7686C93.542 41.8831 94.182 44.4856 95.4619 46.5762C96.7419 48.6455 98.5548 50.1928 100.901 51.2168C103.248 52.2621 106.001 52.7842 109.158 52.7842C113.787 52.7841 117.478 52.0272 120.229 50.5127C123.003 48.9767 125.009 46.6407 126.246 43.5049C127.483 40.3689 128.102 36.3897 128.102 31.5684C128.102 30.6084 128.048 29.4671 127.941 28.1445C127.856 26.8007 127.707 25.3927 127.494 23.9209C127.302 22.4276 127.077 20.9764 126.821 19.5684C126.565 18.1391 126.278 16.8374 125.958 15.6641C125.659 14.4695 125.349 13.5204 125.029 12.8164C124.432 11.8565 123.664 11.1521 122.726 10.7041C121.808 10.2349 120.806 10 119.718 10C116.624 10 115.078 11.5473 115.078 14.6406L115.086 15.0547Z" fill="#1E1E1E"/>
<path d="M93.1279 46.5127C93.1279 45.382 92.8189 44.6242 92.2002 44.2402C91.6029 43.835 90.7816 43.6328 89.7363 43.6328C88.6483 43.6328 87.4745 43.8458 86.2158 44.2725C84.9786 44.6778 83.645 45.0939 82.2158 45.5205C80.808 45.9258 79.3148 46.1279 77.7363 46.1279C76.0297 46.1279 74.6002 45.9575 73.4482 45.6162C72.2963 45.2535 71.2829 44.5601 70.4082 43.5361C69.9389 42.9815 69.5763 42.395 69.3203 41.7764C69.0644 41.1579 68.9366 40.6247 68.9365 40.1768C68.9365 39.7288 69.0535 39.4296 69.2881 39.2803C69.544 39.1096 69.9921 39.0245 70.6318 39.0244C71.3358 39.0244 72.2858 38.9818 73.4805 38.8965C74.675 38.8112 75.8908 38.6933 77.1279 38.5439C78.3866 38.3946 79.4535 38.2242 80.3281 38.0322C81.8855 37.8402 83.3793 37.5846 84.8086 37.2646C86.2591 36.9446 87.5392 36.4751 88.6484 35.8564C89.779 35.2378 90.6647 34.4056 91.3047 33.3604C91.9659 32.3151 92.2959 30.9924 92.2959 29.3926C92.2959 27.7286 91.9224 26.3101 91.1758 25.1367C90.4504 23.9634 89.448 23.0035 88.168 22.2568C86.9094 21.5102 85.4698 20.9654 83.8486 20.624C82.2273 20.2614 80.5413 20.0801 78.792 20.0801C76.2108 20.0801 73.7787 20.4644 71.4961 21.2324C69.2135 21.9791 67.1975 23.0995 65.4482 24.5928C63.7204 26.0647 62.3651 27.9094 61.3838 30.1279C60.4025 32.3253 59.9121 34.8968 59.9121 37.8408C59.9122 41.3819 60.6374 44.3045 62.0879 46.6084C63.5599 48.9124 65.6402 50.6192 68.3281 51.7285C71.0161 52.8378 74.1841 53.3926 77.832 53.3926C79.9226 53.3926 81.8961 53.2221 83.752 52.8809C85.6079 52.5395 87.2296 52.0591 88.6162 51.4404C90.024 50.8432 91.1228 50.1287 91.9121 49.2969C92.6722 48.4968 93.0756 47.6306 93.123 46.6992L93.1279 46.5127ZM102.061 41.0938C102.372 41.8309 102.597 42.5622 102.758 43.2588C102.426 42.6056 102.194 41.8838 102.061 41.0938ZM78.1523 25.584C80.051 25.584 81.5339 25.9366 82.6006 26.6406C83.6884 27.3446 84.2324 28.4433 84.2324 29.9365C84.2324 31.1738 83.8163 32.1555 82.9844 32.8809C82.1524 33.5848 81.0745 34.096 79.752 34.416C78.4294 34.7146 77.0216 34.8643 75.5283 34.8643C74.0139 34.8643 72.7872 34.8325 71.8486 34.7686C70.9313 34.6832 70.2587 34.5128 69.832 34.2568C69.4054 34.0008 69.1924 33.5947 69.1924 33.04C69.1924 32.0375 69.4381 31.0883 69.9287 30.1924C70.4407 29.2965 71.1233 28.5068 71.9766 27.8242C72.8298 27.1203 73.7899 26.5763 74.8564 26.1924C75.9231 25.7871 77.0217 25.584 78.1523 25.584ZM95.4619 46.5762C96.7419 48.6455 98.5548 50.1928 100.901 51.2168C101.29 51.39 101.691 51.5469 102.103 51.6914C101.387 53.424 100.35 54.9301 99.166 56.1777L99.167 56.1787C97.1737 58.2797 94.7939 59.6824 92.5215 60.6465L92.5205 60.6455C90.3083 61.6135 87.9558 62.2753 85.5605 62.7158C83.0482 63.1778 80.4651 63.3926 77.832 63.3926C73.4861 63.3926 69.2418 62.7751 65.2979 61.2822L64.5137 60.9717C60.0561 59.1321 56.31 56.1383 53.6611 51.9922L53.6436 51.9648L53.626 51.9365C53.5321 51.7875 53.4403 51.6377 53.3506 51.4873C54.5368 51.4165 55.4817 51.1133 56.1855 50.5762C57.0175 49.9362 57.6367 48.9127 58.042 47.5049C58.2127 46.5022 58.3513 45.4671 58.458 44.4004C58.586 43.3338 58.6712 42.2459 58.7139 41.1367C58.7779 40.0274 58.8096 38.907 58.8096 37.7764C58.8309 36.6458 58.8309 35.5153 58.8096 34.3848C58.7882 32.2514 58.6713 30.2029 58.458 28.2402C58.2447 26.2563 57.9346 24.4533 57.5293 22.832C57.2084 21.5485 56.8322 20.4398 56.4043 19.5039C57.1853 18.6115 58.0359 17.7708 58.9561 16.9863L59.4824 16.5479C62.1399 14.3921 65.1366 12.791 68.3877 11.7275V11.7285C71.7447 10.6092 75.2328 10.0801 78.792 10.0801C81.1944 10.0801 83.5722 10.3264 85.9072 10.8389H85.9082C85.9492 10.8475 85.9903 10.8564 86.0312 10.8652H86.0303C88.5177 11.4008 90.9448 12.287 93.2061 13.6182C95.7571 15.1063 97.9681 17.1517 99.6113 19.7676H99.6133L99.6367 19.8066C99.6517 19.8306 99.6678 19.8539 99.6826 19.8779L99.6807 19.8789C100.904 21.8344 101.634 23.9074 102 25.9766C101.298 26.1948 100.633 26.4582 100.006 26.7686C97.9152 27.7926 96.3154 29.3181 95.2061 31.3447C94.0968 33.35 93.542 35.8246 93.542 38.7686C93.542 41.8831 94.182 44.4856 95.4619 46.5762Z" fill="#1E1E1E"/>
<path d="M47.0657 3.04004C49.544 3.04004 52.0604 3.46447 54.4925 4.44922L54.4934 4.44727C54.5327 4.46282 54.5715 4.4803 54.6106 4.49609C54.6215 4.50059 54.6329 4.50427 54.6438 4.50879L54.6428 4.50977C56.8027 5.38644 58.757 6.63122 60.4573 8.21094L60.801 8.53906C62.5325 10.2283 63.8962 12.1645 64.9505 14.2275C65.8557 15.9434 66.5193 17.7759 67.0198 19.5996L67.2317 20.4072C67.4366 21.2268 67.6176 22.0644 67.7786 22.918C66.9555 23.4112 66.1787 23.9695 65.4485 24.5928C63.7207 26.0647 62.3653 27.9094 61.3841 30.1279C60.4027 32.3253 59.9124 34.8968 59.9124 37.8408C59.9124 41.3819 60.6376 44.3045 62.0882 46.6084C63.3727 48.619 65.1207 50.1746 67.3313 51.2754C66.4842 53.7112 64.9818 56.4273 62.2835 58.5029L62.2678 58.5146L62.2532 58.5264C59.0987 60.9337 55.5367 61.5049 52.7942 61.5049C50.5894 61.5049 47.5137 61.04 44.7132 58.9443L44.4426 58.7373L44.345 58.6592L44.2483 58.5791C42.8939 57.4504 41.8648 56.1289 41.1175 54.7246C38.9099 55.7643 36.6111 56.1279 34.5862 56.1279C32.7056 56.1279 30.576 55.8072 28.5208 54.9307C27.6121 56.6976 26.3218 58.3303 24.6077 59.6592C21.7908 61.8933 18.6021 62.5605 15.9622 62.5605C12.8793 62.5605 8.51412 61.6921 5.2991 57.9141L5.29714 57.916C5.28086 57.897 5.26643 57.8765 5.25027 57.8574C5.23678 57.8414 5.22172 57.8267 5.20828 57.8105L5.21023 57.8096C3.6307 55.9317 2.63425 53.8075 1.96902 51.9238L1.69851 51.1182L1.59304 50.7871L1.51101 50.4502C1.23112 49.3027 0.991684 48.1077 0.7864 46.876L0.766869 46.7617L0.750268 46.6465C0.620168 45.7358 0.505649 44.8068 0.405541 43.8604L0.309838 42.9072L0.301049 42.8076L0.293236 42.707C0.247968 42.0959 0.205778 41.48 0.166283 40.8594L0.0559316 38.9834L0.0510487 38.8916L0.0481191 38.7988C-0.000379905 37.4165 -0.0118103 36.034 0.0119862 34.6514H0.0110097C0.0345449 33.0745 0.0934392 31.4805 0.186791 29.8701L0.190697 29.8027L0.19558 29.7363C0.313531 28.085 0.467536 26.4745 0.660424 24.9072C0.85844 23.2983 1.1047 21.7597 1.41042 20.3145C1.69926 18.93 2.09631 17.4361 2.67703 16.002C3.73193 13.2945 5.33575 10.5999 7.75808 8.39648V8.39551C9.84425 6.47964 12.2998 5.02746 15.0686 4.16504L15.4964 4.03613C17.6425 3.41223 19.8456 3.10449 22.0745 3.10449C24.841 3.10455 27.7492 3.63278 30.513 5.02539L30.5139 5.02441C30.5176 5.02623 30.5211 5.02846 30.5247 5.03027C30.5434 5.03971 30.5626 5.0481 30.5813 5.05762L30.5803 5.05957C32.0204 5.78752 33.3168 6.69908 34.4563 7.76855C35.4655 6.79184 36.6101 5.9287 37.8919 5.21094L37.929 5.19043L37.9651 5.1709C41.0235 3.49178 44.287 3.04007 47.0657 3.04004ZM47.0657 13.04C45.2952 13.0401 43.8655 13.3392 42.7776 13.9365C41.7111 14.5338 40.8471 15.3978 40.1858 16.5283C39.8445 17.275 39.5136 18.1289 39.1936 19.0889C38.8951 20.0272 38.6076 21.0403 38.3303 22.1279C38.053 23.1946 37.7965 24.2724 37.5618 25.3604C37.3271 26.4482 37.1141 27.4935 36.9221 28.4961C36.7301 29.4134 36.4736 30.2455 36.1536 30.9922C35.8336 31.7387 35.3649 32.1122 34.7464 32.1123C34.149 32.1123 33.6904 31.6963 33.3704 30.8643C33.0717 30.011 32.8043 29.0193 32.5696 27.8887C32.3563 26.95 32.1116 25.9574 31.8343 24.9121C31.5569 23.8455 31.2469 22.7894 30.9055 21.7441C30.5856 20.699 30.2447 19.7279 29.8821 18.832C29.6101 18.1441 29.3377 17.5404 29.0657 17.0205L28.7942 16.5283C28.1116 15.3978 27.1941 14.5447 26.0423 13.9688C25.0529 13.4648 23.9164 13.1812 22.6331 13.1182L22.0745 13.1045C20.6879 13.1045 19.3436 13.3076 18.0423 13.7129C16.7409 14.1182 15.5671 14.8007 14.5218 15.7607L14.3284 15.9404C13.3721 16.8617 12.5944 18.0928 11.9944 19.6328C11.6958 20.3368 11.4283 21.2542 11.1936 22.3848C10.959 23.4939 10.7568 24.7416 10.5862 26.1279L10.4641 27.1787C10.3482 28.2386 10.2502 29.3284 10.1702 30.4482L10.1116 31.5488C10.0596 32.6447 10.026 33.7289 10.01 34.8008C9.98871 36.0166 9.9996 37.2324 10.0423 38.4482C10.1063 39.6429 10.1806 40.8167 10.2659 41.9688C10.3726 43.0993 10.5004 44.1872 10.6497 45.2324C10.8203 46.2563 11.0126 47.2055 11.2259 48.0801C11.6952 49.552 12.25 50.6615 12.8899 51.4082C13.4899 52.1282 14.4275 52.5106 15.7024 52.5557L15.9622 52.5605C16.9648 52.5605 17.7752 52.3148 18.3938 51.8242C19.0338 51.3549 19.5143 50.715 19.8343 49.9043C19.9302 49.5683 20.0077 49.1783 20.0676 48.7344L20.1223 48.2725C20.2077 47.6111 20.2711 46.8642 20.3137 46.0322C20.3564 45.1789 20.3891 44.2615 20.4104 43.2803C20.4318 42.2991 20.4417 41.2646 20.4417 40.1768C20.4417 39.0888 20.4526 38.0427 20.4739 37.04C20.4912 36.2268 20.5168 35.4556 20.5481 34.7266L20.5696 34.2246C20.6069 33.4591 20.6546 32.7588 20.7083 32.124L20.7298 31.8564C20.7826 31.2573 20.838 30.7458 20.8909 30.3213L20.9221 30.0645C21.1568 28.6138 21.4659 27.5469 21.8499 26.8643C22.2339 26.1816 22.853 25.8408 23.7063 25.8408C24.3247 25.8409 24.8472 26.0858 25.2737 26.5762C25.7004 27.0668 26.053 27.8246 26.3303 28.8486C26.4797 29.3606 26.6392 30.0007 26.8098 30.7686C27.0018 31.5365 27.194 32.3796 27.386 33.2969C27.5993 34.1927 27.8024 35.0994 27.9944 36.0166C28.2077 36.9123 28.399 37.7548 28.5696 38.5439C28.7616 39.3118 28.933 39.9628 29.0823 40.4961C29.6796 42.2452 30.3405 43.6214 31.0657 44.624C31.7457 45.564 32.8198 46.0633 34.2874 46.1221L34.5862 46.1279C35.9259 46.1279 36.975 45.7814 37.7337 45.0879L37.8821 44.9443C38.65 44.1337 39.2157 42.9606 39.5784 41.4248C39.7064 40.7208 39.8451 39.9521 39.9944 39.1201C40.1437 38.2884 40.2924 37.4458 40.4417 36.5928C40.6123 35.7395 40.7619 34.9073 40.8899 34.0967C41.0392 33.2861 41.1779 32.5499 41.3059 31.8887C41.4552 31.2061 41.5831 30.6512 41.6897 30.2246C41.9671 29.0726 42.3623 28.1979 42.8743 27.6006C43.4076 26.9819 44.0476 26.6729 44.7942 26.6729C45.6046 26.6729 46.2231 26.9604 46.6497 27.5361C47.0977 28.1121 47.482 28.9551 47.802 30.0645C47.994 30.6405 48.1545 31.4726 48.2825 32.5605C48.4318 33.6485 48.5596 34.875 48.6663 36.2402C48.7729 37.6056 48.8581 39.0033 48.9221 40.4326C48.9648 41.1791 49.0183 41.9363 49.0823 42.7041C49.1463 43.4721 49.2097 44.2408 49.2737 45.0088C49.3377 45.7553 49.3912 46.4916 49.4339 47.2168C49.4978 47.9205 49.5623 48.5709 49.6262 49.168C49.7969 49.8932 50.1378 50.4698 50.6497 50.8965C51.0976 51.2511 51.701 51.4508 52.4593 51.4951L52.7942 51.5049C54.2448 51.5049 55.3752 51.1948 56.1858 50.5762C57.0177 49.9362 57.6369 48.9127 58.0423 47.5049C58.2129 46.5022 58.3516 45.4671 58.4583 44.4004C58.5863 43.3338 58.6715 42.2459 58.7141 41.1367C58.7781 40.0274 58.8098 38.907 58.8098 37.7764C58.8258 36.9284 58.8296 36.0804 58.8216 35.2324L58.8098 34.3848C58.7912 32.5181 58.6991 30.7165 58.5335 28.9805L58.4583 28.2402C58.2449 26.2563 57.9349 24.4533 57.5296 22.832C57.1243 21.211 56.6338 19.8673 56.0579 18.8008C55.4392 17.5848 54.6923 16.5496 53.8176 15.6963C52.943 14.8431 51.9404 14.1921 50.8098 13.7441C49.6792 13.2749 48.4309 13.04 47.0657 13.04Z" fill="#1E1E1E"/>
</svg>
