<svg preserveAspectRatio="none" overflow="visible" style="display: block;" width="89.0003" height="84.9743" viewBox="0 0 89.0003 84.9743" fill="none" xmlns="http://www.w3.org/2000/svg">
<g id="Group 139">
<path id="Vector" d="M43.7549 73.7548C43.7549 73.2053 43.7549 72.6981 43.7549 72.1486H10.1833C5.2986 72.1486 3.6014 70.4156 3.6014 65.4281C3.6014 52.3251 3.6014 39.2222 3.6014 26.1193V23.6677C7.90651 26.0347 12.1288 25.1894 16.227 25.1894C34.5237 25.2739 52.8205 25.2316 71.0758 25.2316C73.9321 25.2316 74.2633 25.5698 74.2633 28.5285C74.2633 30.98 74.2633 33.4316 74.2633 36.0944C71.3242 36.0944 68.6749 36.0944 65.9842 36.0944C62.4242 36.0944 59.3195 37.4047 57.0014 39.5181C63.4177 38.2923 69.9167 38.5882 76.333 40.3212C78.6098 40.9129 80.6381 42.0964 82.3353 43.1108C83.4116 43.7448 84.2809 44.6324 84.9019 45.6469C84.9019 43.2799 84.9019 40.9552 84.9019 38.5882C84.9019 36.7707 84.0739 36.0521 82.3353 36.0944C80.8865 36.1367 79.4791 36.0944 77.7819 36.0944C77.7819 33.0511 77.8233 30.2615 77.7819 27.4718C77.7405 23.8368 75.6707 21.7234 72.1107 21.6389C70.5791 21.5966 69.0888 21.6389 67.64 21.6389C67.3916 21.3008 67.3088 21.2585 67.3088 21.174C67.2674 18.2998 67.2674 15.4256 67.1433 12.5091C67.0191 9.5504 64.9907 6.92981 62.2586 7.35248C57.5395 8.07103 55.0558 5.87312 53.2758 1.7309C52.4065 -0.340206 51.4544 -0.424741 49.4674 0.801017C46.487 2.57625 43.5893 4.47829 40.5674 6.21126C39.5326 6.76074 38.2907 7.18341 37.0902 7.18341C27.9005 7.26795 18.7521 7.22568 9.56233 7.22568C3.6014 7.26795 0 10.903 0 16.9472C0 33.2625 0 49.62 0 65.9775C0 72.1486 3.56 75.8259 9.68651 75.8259C21.1116 75.8259 32.5367 75.8259 43.9619 75.8259C43.8377 75.1496 43.7549 74.4733 43.7549 73.7548ZM61.6791 10.8184C63.0037 10.8607 63.7074 11.6215 63.7074 12.9318C63.7488 14.9606 63.7074 16.9472 63.3349 19.1451C61.8033 16.5245 60.313 13.8617 58.533 10.7762C59.9405 10.8184 60.8098 10.7762 61.6791 10.8184ZM8.61023 10.8607C16.4753 10.7762 24.2991 10.8184 32.1228 10.8184C32.1642 10.9875 32.247 11.1566 32.2884 11.2834C27.9833 13.904 23.5126 16.3132 19.4558 19.2719C16.0614 21.7657 12.4186 21.8502 8.65163 21.5966C5.54698 21.3853 3.6014 19.1451 3.64279 16.0596C3.72558 13.1854 5.71256 10.903 8.61023 10.8607Z" fill="#AEB96C"/>
<path id="Vector_2" d="M82.3356 66.3159C84.8193 67.2035 86.7235 68.7252 87.924 71.0499C90.1179 75.3612 88.876 80.5178 84.9435 83.3075C81.1351 86.0126 75.8365 85.3786 72.7319 81.7436C72.1937 81.1096 71.697 80.9828 70.9105 81.0673C65.6947 81.7436 60.4788 81.7436 55.3458 80.3488C53.4002 79.8415 51.4961 78.9539 49.6747 77.9818C48.1016 77.1364 47.4393 75.6571 47.4393 73.755C47.4807 69.2324 47.3979 64.752 47.4807 60.2294C47.5221 59.1727 48.2258 58.0738 48.2258 57.0171C48.2258 55.9604 47.6049 54.946 47.4807 53.8893C47.3565 52.6213 47.4807 51.3532 47.4393 50.0852C47.3979 48.5213 47.9774 47.1687 49.2607 46.3657C50.9165 45.3935 52.6137 44.4214 54.4351 43.9141C61.3895 42.0121 68.3854 42.0544 75.2984 43.9141C77.0784 44.3791 78.7756 45.3512 80.39 46.3234C81.6733 47.0842 82.2942 48.3945 82.2528 50.0007C82.2528 50.4233 82.5426 50.9728 82.8737 51.2687C84.0328 52.2831 84.7365 53.4666 84.6951 55.115C84.6123 56.4676 84.6537 57.8202 84.6951 59.1304C84.7365 60.5675 84.2812 61.751 83.1635 62.5541C82.377 63.1459 82.1286 63.8221 82.2528 64.7098C82.377 65.2592 82.3356 65.8087 82.3356 66.3159ZM64.784 54.2274C68.2612 54.1852 71.5728 53.9738 74.7188 52.9594C76.2505 52.4522 77.7407 51.7336 79.0654 50.8883C80.2244 50.1697 80.1416 49.2398 79.0654 48.3945C78.4444 47.8873 77.7407 47.4223 76.9956 47.1687C69.3788 44.4214 61.6793 44.4636 53.9798 46.7461C52.9449 47.0419 51.91 47.6337 50.9993 48.2254C49.6333 49.1553 49.6333 50.1275 50.9993 51.0996C51.6202 51.5646 52.324 51.945 53.0277 52.1986C56.8775 53.8047 60.8928 54.1429 64.784 54.2274ZM72.8147 75.488C72.8147 79.3766 75.9193 82.5467 79.6863 82.5044C83.4119 82.5044 86.5165 79.3343 86.5579 75.5303C86.5993 71.6416 83.4947 68.4716 79.6863 68.4716C75.8779 68.4716 72.8147 71.5571 72.8147 75.488ZM52.6137 59.7222C52.5309 59.8067 52.4481 59.8913 52.3654 59.9758C52.8207 60.3985 53.1933 60.948 53.7314 61.2016C54.9733 61.8356 56.2979 62.4696 57.6226 62.85C63.004 64.3716 68.4681 64.3716 73.9323 63.5685C76.3333 63.2304 78.7342 62.6387 80.804 61.2861C81.3835 60.9057 82.0872 60.1871 82.2114 59.5531C82.4184 58.3274 82.2942 57.0593 82.2942 55.4532C81.2593 57.7356 79.5621 58.7078 77.6993 59.4686C74.0151 60.9902 70.1654 61.4552 66.2328 61.582C61.5965 61.751 57.043 61.3284 52.6137 59.7222ZM50.0058 68.4716C49.7161 69.6973 50.2128 70.5004 51.1235 71.0499C51.7858 71.4726 52.4481 71.853 53.1933 72.1488C58.6161 74.22 64.2458 74.3045 69.917 73.755C70.1654 73.7127 70.4965 73.5014 70.5793 73.2901C70.8691 72.6561 71.0347 71.9375 71.2416 71.1767C63.9561 71.853 56.7947 71.8952 50.0058 68.4716Z" fill="#AEB96C"/>
<path id="Vector_3" d="M78.3205 79.8837C77.1201 78.7002 75.9196 77.5167 74.6777 76.2487C75.2573 75.7415 75.7954 75.192 76.5405 74.5157C77.0373 75.192 77.534 75.9528 78.1963 76.8404C79.9349 74.9807 81.3838 73.3745 82.9568 71.7261C83.5777 72.4024 84.1159 72.9518 84.6126 73.5013C82.5428 75.657 80.4317 77.7703 78.3205 79.8837Z" fill="#AEB96C"/>
</g>
</svg>
